<svg width="1920" height="500" viewBox="0 0 1920 500" fill="none" xmlns="http://www.w3.org/2000/svg">
<g clip-path="url(#clip0_47_12894)">
<g opacity="0.4">
<mask id="mask0_47_12894" style="mask-type:alpha" maskUnits="userSpaceOnUse" x="0" y="0" width="1920" height="500">
<rect width="1920" height="500" fill="white"/>
</mask>
<g mask="url(#mask0_47_12894)">
<ellipse cx="313.794" cy="207.29" rx="313.794" ry="207.29" transform="matrix(0.700768 0.713389 -0.801117 0.598507 1742.83 -251.41)" fill="#FFECDA"/>
<ellipse cx="755.333" cy="382.558" rx="338" ry="190.698" fill="#FFC5C5"/>
<ellipse cx="198" cy="70.9301" rx="338" ry="190.698" fill="#FFC5C5"/>
<ellipse cx="1419.33" cy="261.628" rx="326" ry="200" fill="#FFC5C5"/>
<ellipse cx="198" cy="408.14" rx="338" ry="190.698" fill="#FFECDA"/>
<ellipse cx="861.333" cy="85.4647" rx="370.667" ry="194.767" fill="#FFECDA"/>
<ellipse cx="1472.67" cy="500" rx="351.333" ry="190.698" fill="#FFECDA"/>
<ellipse cx="1052.67" cy="284.302" rx="92.6667" ry="76.1628" fill="#CEF0FF"/>
<ellipse cx="1890" cy="383.139" rx="92.6667" ry="76.1628" fill="#CEF0FF"/>
<ellipse cx="443.333" cy="233.139" rx="92.6667" ry="76.1628" fill="#CEF0FF"/>
<ellipse cx="1476.67" cy="14.5349" rx="92.6667" ry="76.1628" fill="#CEF0FF"/>
<ellipse cx="740.667" cy="484.302" rx="92.6667" ry="76.1628" fill="#CEF0FF"/>
</g>
</g>
<g filter="url(#filter0_b_47_12894)">
<rect width="1920" height="500" fill="white" fill-opacity="0.02"/>
</g>
<path d="M584.296 170V134.864H571.112V125.2H608.872V134.864H595.24V170H584.296ZM615.482 170V122.64H625.658V142.928L623.546 143.696C624.015 142.16 624.847 140.773 626.042 139.536C627.279 138.256 628.751 137.232 630.458 136.464C632.164 135.696 633.956 135.312 635.834 135.312C638.394 135.312 640.548 135.845 642.298 136.912C644.047 137.936 645.348 139.493 646.201 141.584C647.098 143.632 647.546 146.171 647.546 149.2V170H637.242V149.968C637.242 148.603 637.05 147.472 636.666 146.576C636.282 145.68 635.706 145.019 634.938 144.592C634.17 144.165 633.21 143.973 632.058 144.016C631.162 144.016 630.33 144.165 629.562 144.464C628.794 144.72 628.111 145.125 627.514 145.68C626.959 146.192 626.532 146.789 626.234 147.472C625.935 148.155 625.786 148.923 625.786 149.776V170H620.602C619.492 170 618.49 170 617.594 170C616.74 170 616.036 170 615.482 170ZM672.361 170.64C668.606 170.64 665.321 169.893 662.505 168.4C659.732 166.907 657.577 164.859 656.041 162.256C654.548 159.611 653.801 156.603 653.801 153.232C653.801 150.587 654.228 148.176 655.081 146C655.934 143.781 657.129 141.883 658.665 140.304C660.244 138.725 662.078 137.509 664.169 136.656C666.302 135.76 668.628 135.312 671.145 135.312C673.534 135.312 675.71 135.739 677.673 136.592C679.636 137.445 681.342 138.64 682.793 140.176C684.244 141.712 685.353 143.525 686.121 145.616C686.889 147.707 687.252 149.989 687.209 152.464L687.145 155.28H660.137L658.601 149.456H678.761L677.673 150.608V149.328C677.588 148.261 677.246 147.344 676.649 146.576C676.094 145.765 675.348 145.125 674.409 144.656C673.513 144.187 672.489 143.952 671.337 143.952C669.63 143.952 668.18 144.293 666.985 144.976C665.833 145.616 664.958 146.555 664.361 147.792C663.764 149.029 663.465 150.565 663.465 152.4C663.465 154.235 663.849 155.856 664.617 157.264C665.428 158.672 666.58 159.76 668.073 160.528C669.609 161.296 671.422 161.68 673.513 161.68C674.921 161.68 676.201 161.467 677.353 161.04C678.505 160.613 679.742 159.888 681.065 158.864L685.865 165.648C684.542 166.757 683.134 167.696 681.641 168.464C680.148 169.189 678.612 169.723 677.033 170.064C675.497 170.448 673.94 170.64 672.361 170.64ZM715.193 170V125.2H735.033C738.148 125.2 740.75 125.648 742.841 126.544C744.974 127.397 746.596 128.656 747.705 130.32C748.814 131.941 749.369 133.925 749.369 136.272C749.369 138.789 748.729 140.901 747.449 142.608C746.212 144.315 744.42 145.509 742.073 146.192L742.009 144.848C743.929 145.317 745.614 146.107 747.065 147.216C748.558 148.283 749.71 149.605 750.521 151.184C751.332 152.72 751.737 154.469 751.737 156.432C751.737 158.693 751.332 160.677 750.521 162.384C749.753 164.091 748.644 165.52 747.193 166.672C745.785 167.781 744.1 168.613 742.137 169.168C740.217 169.723 738.084 170 735.737 170H715.193ZM725.561 160.848H735.289C737.081 160.848 738.468 160.421 739.449 159.568C740.473 158.715 740.985 157.499 740.985 155.92C740.985 154.939 740.729 154.107 740.217 153.424C739.748 152.741 739.065 152.229 738.169 151.888C737.273 151.547 736.206 151.376 734.969 151.376H725.561V160.848ZM725.561 143.12H733.561C734.67 143.12 735.609 142.949 736.377 142.608C737.145 142.224 737.721 141.712 738.105 141.072C738.532 140.389 738.745 139.6 738.745 138.704C738.745 137.339 738.276 136.272 737.337 135.504C736.398 134.736 734.99 134.352 733.113 134.352H725.561V143.12ZM775.174 170.64C771.419 170.64 768.134 169.893 765.318 168.4C762.544 166.907 760.39 164.859 758.854 162.256C757.36 159.611 756.614 156.603 756.614 153.232C756.614 150.587 757.04 148.176 757.894 146C758.747 143.781 759.942 141.883 761.478 140.304C763.056 138.725 764.891 137.509 766.982 136.656C769.115 135.76 771.44 135.312 773.958 135.312C776.347 135.312 778.523 135.739 780.486 136.592C782.448 137.445 784.155 138.64 785.606 140.176C787.056 141.712 788.166 143.525 788.934 145.616C789.702 147.707 790.064 149.989 790.022 152.464L789.958 155.28H762.95L761.414 149.456H781.574L780.486 150.608V149.328C780.4 148.261 780.059 147.344 779.462 146.576C778.907 145.765 778.16 145.125 777.222 144.656C776.326 144.187 775.302 143.952 774.15 143.952C772.443 143.952 770.992 144.293 769.798 144.976C768.646 145.616 767.771 146.555 767.174 147.792C766.576 149.029 766.278 150.565 766.278 152.4C766.278 154.235 766.662 155.856 767.43 157.264C768.24 158.672 769.392 159.76 770.885 160.528C772.422 161.296 774.235 161.68 776.326 161.68C777.734 161.68 779.014 161.467 780.166 161.04C781.318 160.613 782.555 159.888 783.878 158.864L788.678 165.648C787.355 166.757 785.947 167.696 784.454 168.464C782.96 169.189 781.424 169.723 779.846 170.064C778.31 170.448 776.752 170.64 775.174 170.64ZM808 170.64C804.757 170.64 801.856 170.128 799.296 169.104C796.736 168.037 794.688 166.587 793.152 164.752L799.424 159.376C800.747 160.699 802.24 161.68 803.904 162.32C805.568 162.917 807.147 163.216 808.64 163.216C809.195 163.216 809.685 163.152 810.112 163.024C810.539 162.896 810.901 162.725 811.2 162.512C811.541 162.256 811.797 161.979 811.968 161.68C812.139 161.339 812.224 160.955 812.224 160.528C812.224 159.675 811.861 159.035 811.136 158.608C810.795 158.395 810.176 158.139 809.28 157.84C808.384 157.499 807.232 157.157 805.824 156.816C803.819 156.304 802.069 155.685 800.576 154.96C799.125 154.235 797.931 153.403 796.992 152.464C796.139 151.611 795.477 150.629 795.008 149.52C794.581 148.411 794.368 147.173 794.368 145.808C794.368 143.717 794.987 141.883 796.224 140.304C797.504 138.725 799.168 137.509 801.216 136.656C803.264 135.76 805.483 135.312 807.872 135.312C809.749 135.312 811.52 135.525 813.184 135.952C814.891 136.379 816.469 136.976 817.92 137.744C819.413 138.512 820.736 139.429 821.888 140.496L816.448 146.576C815.723 145.851 814.869 145.211 813.888 144.656C812.907 144.059 811.925 143.589 810.944 143.248C809.963 142.864 809.045 142.672 808.192 142.672C807.552 142.672 806.976 142.736 806.464 142.864C805.995 142.949 805.589 143.12 805.248 143.376C804.949 143.589 804.715 143.867 804.544 144.208C804.373 144.507 804.288 144.848 804.288 145.232C804.288 145.701 804.395 146.128 804.608 146.512C804.864 146.853 805.205 147.173 805.632 147.472C806.016 147.685 806.677 147.963 807.616 148.304C808.597 148.645 809.877 149.029 811.456 149.456C813.461 150.011 815.168 150.651 816.576 151.376C818.027 152.059 819.179 152.869 820.032 153.808C820.757 154.533 821.269 155.387 821.568 156.368C821.909 157.307 822.08 158.331 822.08 159.44C822.08 161.616 821.461 163.557 820.224 165.264C819.029 166.928 817.365 168.251 815.232 169.232C813.141 170.171 810.731 170.64 808 170.64ZM831.048 170V127.44H841.352V170H831.048ZM825.032 145.04V136.016H847.88V145.04H825.032ZM875.256 170V125.2H894.648C897.464 125.2 899.981 125.84 902.2 127.12C904.418 128.4 906.168 130.149 907.448 132.368C908.728 134.544 909.368 137.04 909.368 139.856C909.368 142.715 908.728 145.296 907.448 147.6C906.168 149.904 904.418 151.717 902.2 153.04C899.981 154.363 897.464 155.024 894.648 155.024H886.2V170H875.256ZM886.072 145.36H893.176C894.114 145.36 894.946 145.147 895.672 144.72C896.44 144.251 897.058 143.611 897.528 142.8C897.997 141.989 898.232 141.072 898.232 140.048C898.232 138.981 897.997 138.064 897.528 137.296C897.058 136.528 896.44 135.931 895.672 135.504C894.946 135.077 894.114 134.864 893.176 134.864H886.072V145.36ZM931.918 170.64C928.419 170.64 925.283 169.893 922.51 168.4C919.736 166.864 917.56 164.773 915.982 162.128C914.403 159.44 913.614 156.411 913.614 153.04C913.614 149.584 914.403 146.533 915.982 143.888C917.56 141.2 919.736 139.109 922.51 137.616C925.283 136.08 928.419 135.312 931.918 135.312C935.459 135.312 938.595 136.08 941.326 137.616C944.099 139.109 946.275 141.2 947.854 143.888C949.432 146.533 950.222 149.584 950.222 153.04C950.222 156.411 949.432 159.44 947.854 162.128C946.275 164.773 944.099 166.864 941.326 168.4C938.595 169.893 935.459 170.64 931.918 170.64ZM931.918 161.808C933.454 161.808 934.798 161.424 935.95 160.656C937.144 159.888 938.083 158.843 938.766 157.52C939.448 156.197 939.768 154.704 939.726 153.04C939.768 151.291 939.448 149.755 938.766 148.432C938.083 147.067 937.144 146.021 935.95 145.296C934.798 144.528 933.454 144.144 931.918 144.144C930.424 144.144 929.08 144.528 927.885 145.296C926.691 146.064 925.752 147.109 925.07 148.432C924.387 149.755 924.046 151.291 924.046 153.04C924.046 154.704 924.387 156.197 925.07 157.52C925.752 158.843 926.691 159.888 927.885 160.656C929.08 161.424 930.424 161.808 931.918 161.808ZM956.919 184.08V136.016H966.711L967.159 143.504L965.175 142.928C965.431 141.563 966.135 140.325 967.287 139.216C968.482 138.064 969.954 137.147 971.703 136.464C973.452 135.739 975.308 135.376 977.271 135.376C980.172 135.376 982.754 136.123 985.015 137.616C987.276 139.109 989.047 141.2 990.327 143.888C991.65 146.533 992.311 149.584 992.311 153.04C992.311 156.411 991.65 159.419 990.327 162.064C989.047 164.709 987.255 166.8 984.951 168.336C982.69 169.829 980.108 170.576 977.207 170.576C975.244 170.576 973.388 170.213 971.639 169.488C969.89 168.72 968.418 167.739 967.223 166.544C966.028 165.349 965.26 164.048 964.919 162.64L967.287 161.68V184.08H956.919ZM974.711 161.872C976.247 161.872 977.57 161.509 978.679 160.784C979.831 160.059 980.706 159.035 981.303 157.712C981.943 156.347 982.263 154.789 982.263 153.04C982.263 151.248 981.943 149.691 981.303 148.368C980.706 147.003 979.831 145.957 978.679 145.232C977.57 144.464 976.247 144.08 974.711 144.08C973.132 144.08 971.767 144.464 970.615 145.232C969.463 145.957 968.567 146.981 967.927 148.304C967.287 149.627 966.967 151.205 966.967 153.04C966.967 154.789 967.287 156.347 967.927 157.712C968.567 159.035 969.463 160.059 970.615 160.784C971.767 161.509 973.132 161.872 974.711 161.872ZM997.828 156.304V146.896H1019.84V156.304H997.828ZM1047.57 170.384C1043.86 170.384 1040.56 169.637 1037.65 168.144C1034.8 166.608 1032.53 164.517 1030.87 161.872C1029.21 159.184 1028.37 156.155 1028.37 152.784V125.136H1039.38V152.208C1039.38 153.829 1039.75 155.28 1040.47 156.56C1041.2 157.84 1042.18 158.864 1043.41 159.632C1044.69 160.357 1046.08 160.72 1047.57 160.72C1049.15 160.72 1050.58 160.357 1051.86 159.632C1053.14 158.864 1054.15 157.84 1054.87 156.56C1055.64 155.28 1056.02 153.829 1056.02 152.208V125.136H1066.65V152.784C1066.65 156.155 1065.81 159.184 1064.15 161.872C1062.53 164.517 1060.29 166.608 1057.43 168.144C1054.57 169.637 1051.29 170.384 1047.57 170.384ZM1076.48 184.08V136.016H1086.27L1086.72 143.504L1084.74 142.928C1084.99 141.563 1085.7 140.325 1086.85 139.216C1088.04 138.064 1089.52 137.147 1091.27 136.464C1093.01 135.739 1094.87 135.376 1096.83 135.376C1099.73 135.376 1102.32 136.123 1104.58 137.616C1106.84 139.109 1108.61 141.2 1109.89 143.888C1111.21 146.533 1111.87 149.584 1111.87 153.04C1111.87 156.411 1111.21 159.419 1109.89 162.064C1108.61 164.709 1106.82 166.8 1104.51 168.336C1102.25 169.829 1099.67 170.576 1096.77 170.576C1094.81 170.576 1092.95 170.213 1091.2 169.488C1089.45 168.72 1087.98 167.739 1086.79 166.544C1085.59 165.349 1084.82 164.048 1084.48 162.64L1086.85 161.68V184.08H1076.48ZM1094.27 161.872C1095.81 161.872 1097.13 161.509 1098.24 160.784C1099.39 160.059 1100.27 159.035 1100.87 157.712C1101.51 156.347 1101.83 154.789 1101.83 153.04C1101.83 151.248 1101.51 149.691 1100.87 148.368C1100.27 147.003 1099.39 145.957 1098.24 145.232C1097.13 144.464 1095.81 144.08 1094.27 144.08C1092.69 144.08 1091.33 144.464 1090.18 145.232C1089.03 145.957 1088.13 146.981 1087.49 148.304C1086.85 149.627 1086.53 151.205 1086.53 153.04C1086.53 154.789 1086.85 156.347 1087.49 157.712C1088.13 159.035 1089.03 160.059 1090.18 160.784C1091.33 161.509 1092.69 161.872 1094.27 161.872ZM1154.98 170.64C1150.54 170.64 1146.79 169.872 1143.72 168.336C1140.69 166.757 1138.08 164.539 1135.91 161.68L1142.56 154.192C1144.65 157.051 1146.77 158.971 1148.9 159.952C1151.03 160.933 1153.23 161.424 1155.49 161.424C1156.64 161.424 1157.67 161.275 1158.56 160.976C1159.5 160.677 1160.23 160.251 1160.74 159.696C1161.29 159.099 1161.57 158.395 1161.57 157.584C1161.57 156.944 1161.4 156.368 1161.06 155.856C1160.76 155.344 1160.33 154.896 1159.78 154.512C1159.23 154.128 1158.59 153.787 1157.86 153.488C1157.13 153.147 1156.32 152.869 1155.43 152.656C1154.57 152.443 1153.7 152.251 1152.8 152.08C1150.33 151.568 1148.17 150.907 1146.34 150.096C1144.55 149.243 1143.03 148.24 1141.8 147.088C1140.6 145.893 1139.71 144.549 1139.11 143.056C1138.51 141.52 1138.21 139.792 1138.21 137.872C1138.21 135.141 1138.98 132.752 1140.52 130.704C1142.09 128.656 1144.16 127.056 1146.72 125.904C1149.28 124.752 1152.06 124.176 1155.04 124.176C1159.4 124.176 1162.89 124.88 1165.54 126.288C1168.23 127.653 1170.36 129.552 1171.94 131.984L1165.16 138.576C1163.83 136.869 1162.32 135.589 1160.61 134.736C1158.95 133.883 1157.2 133.456 1155.36 133.456C1154.13 133.456 1153.04 133.605 1152.1 133.904C1151.16 134.203 1150.44 134.651 1149.92 135.248C1149.45 135.803 1149.22 136.485 1149.22 137.296C1149.22 137.979 1149.41 138.597 1149.8 139.152C1150.22 139.664 1150.8 140.112 1151.52 140.496C1152.25 140.88 1153.08 141.221 1154.02 141.52C1154.96 141.776 1155.94 141.989 1156.96 142.16C1159.31 142.629 1161.42 143.248 1163.3 144.016C1165.22 144.784 1166.86 145.744 1168.23 146.896C1169.59 148.005 1170.64 149.328 1171.36 150.864C1172.13 152.357 1172.52 154.085 1172.52 156.048C1172.52 159.12 1171.77 161.744 1170.28 163.92C1168.78 166.096 1166.71 167.76 1164.07 168.912C1161.42 170.064 1158.39 170.64 1154.98 170.64ZM1179.67 170V122.64H1189.85V142.928L1187.73 143.696C1188.2 142.16 1189.03 140.773 1190.23 139.536C1191.47 138.256 1192.94 137.232 1194.65 136.464C1196.35 135.696 1198.14 135.312 1200.02 135.312C1202.58 135.312 1204.74 135.845 1206.49 136.912C1208.23 137.936 1209.54 139.493 1210.39 141.584C1211.29 143.632 1211.73 146.171 1211.73 149.2V170H1201.43V149.968C1201.43 148.603 1201.24 147.472 1200.85 146.576C1200.47 145.68 1199.89 145.019 1199.13 144.592C1198.36 144.165 1197.4 143.973 1196.25 144.016C1195.35 144.016 1194.52 144.165 1193.75 144.464C1192.98 144.72 1192.3 145.125 1191.7 145.68C1191.15 146.192 1190.72 146.789 1190.42 147.472C1190.12 148.155 1189.97 148.923 1189.97 149.776V170H1184.79C1183.68 170 1182.68 170 1181.78 170C1180.93 170 1180.22 170 1179.67 170ZM1236.29 170.64C1232.79 170.64 1229.66 169.893 1226.88 168.4C1224.11 166.864 1221.94 164.773 1220.36 162.128C1218.78 159.44 1217.99 156.411 1217.99 153.04C1217.99 149.584 1218.78 146.533 1220.36 143.888C1221.94 141.2 1224.11 139.109 1226.88 137.616C1229.66 136.08 1232.79 135.312 1236.29 135.312C1239.83 135.312 1242.97 136.08 1245.7 137.616C1248.47 139.109 1250.65 141.2 1252.23 143.888C1253.81 146.533 1254.6 149.584 1254.6 153.04C1254.6 156.411 1253.81 159.44 1252.23 162.128C1250.65 164.773 1248.47 166.864 1245.7 168.4C1242.97 169.893 1239.83 170.64 1236.29 170.64ZM1236.29 161.808C1237.83 161.808 1239.17 161.424 1240.32 160.656C1241.52 159.888 1242.46 158.843 1243.14 157.52C1243.82 156.197 1244.14 154.704 1244.1 153.04C1244.14 151.291 1243.82 149.755 1243.14 148.432C1242.46 147.067 1241.52 146.021 1240.32 145.296C1239.17 144.528 1237.83 144.144 1236.29 144.144C1234.8 144.144 1233.46 144.528 1232.26 145.296C1231.07 146.064 1230.13 147.109 1229.44 148.432C1228.76 149.755 1228.42 151.291 1228.42 153.04C1228.42 154.704 1228.76 156.197 1229.44 157.52C1230.13 158.843 1231.07 159.888 1232.26 160.656C1233.46 161.424 1234.8 161.808 1236.29 161.808ZM1261.29 184.08V136.016H1271.09L1271.53 143.504L1269.55 142.928C1269.81 141.563 1270.51 140.325 1271.66 139.216C1272.86 138.064 1274.33 137.147 1276.08 136.464C1277.83 135.739 1279.68 135.376 1281.65 135.376C1284.55 135.376 1287.13 136.123 1289.39 137.616C1291.65 139.109 1293.42 141.2 1294.7 143.888C1296.02 146.533 1296.69 149.584 1296.69 153.04C1296.69 156.411 1296.02 159.419 1294.7 162.064C1293.42 164.709 1291.63 166.8 1289.33 168.336C1287.06 169.829 1284.48 170.576 1281.58 170.576C1279.62 170.576 1277.76 170.213 1276.01 169.488C1274.26 168.72 1272.79 167.739 1271.6 166.544C1270.4 165.349 1269.64 164.048 1269.29 162.64L1271.66 161.68V184.08H1261.29ZM1279.09 161.872C1280.62 161.872 1281.94 161.509 1283.05 160.784C1284.21 160.059 1285.08 159.035 1285.68 157.712C1286.32 156.347 1286.64 154.789 1286.64 153.04C1286.64 151.248 1286.32 149.691 1285.68 148.368C1285.08 147.003 1284.21 145.957 1283.05 145.232C1281.94 144.464 1280.62 144.08 1279.09 144.08C1277.51 144.08 1276.14 144.464 1274.99 145.232C1273.84 145.957 1272.94 146.981 1272.3 148.304C1271.66 149.627 1271.34 151.205 1271.34 153.04C1271.34 154.789 1271.66 156.347 1272.3 157.712C1272.94 159.035 1273.84 160.059 1274.99 160.784C1276.14 161.509 1277.51 161.872 1279.09 161.872ZM1314.88 170.64C1311.63 170.64 1308.73 170.128 1306.17 169.104C1303.61 168.037 1301.56 166.587 1300.03 164.752L1306.3 159.376C1307.62 160.699 1309.12 161.68 1310.78 162.32C1312.44 162.917 1314.02 163.216 1315.52 163.216C1316.07 163.216 1316.56 163.152 1316.99 163.024C1317.41 162.896 1317.78 162.725 1318.08 162.512C1318.42 162.256 1318.67 161.979 1318.84 161.68C1319.01 161.339 1319.1 160.955 1319.1 160.528C1319.1 159.675 1318.74 159.035 1318.01 158.608C1317.67 158.395 1317.05 158.139 1316.16 157.84C1315.26 157.499 1314.11 157.157 1312.7 156.816C1310.69 156.304 1308.94 155.685 1307.45 154.96C1306 154.235 1304.81 153.403 1303.87 152.464C1303.01 151.611 1302.35 150.629 1301.88 149.52C1301.46 148.411 1301.24 147.173 1301.24 145.808C1301.24 143.717 1301.86 141.883 1303.1 140.304C1304.38 138.725 1306.04 137.509 1308.09 136.656C1310.14 135.76 1312.36 135.312 1314.75 135.312C1316.62 135.312 1318.4 135.525 1320.06 135.952C1321.77 136.379 1323.34 136.976 1324.8 137.744C1326.29 138.512 1327.61 139.429 1328.76 140.496L1323.32 146.576C1322.6 145.851 1321.74 145.211 1320.76 144.656C1319.78 144.059 1318.8 143.589 1317.82 143.248C1316.84 142.864 1315.92 142.672 1315.07 142.672C1314.43 142.672 1313.85 142.736 1313.34 142.864C1312.87 142.949 1312.46 143.12 1312.12 143.376C1311.82 143.589 1311.59 143.867 1311.42 144.208C1311.25 144.507 1311.16 144.848 1311.16 145.232C1311.16 145.701 1311.27 146.128 1311.48 146.512C1311.74 146.853 1312.08 147.173 1312.51 147.472C1312.89 147.685 1313.55 147.963 1314.49 148.304C1315.47 148.645 1316.75 149.029 1318.33 149.456C1320.34 150.011 1322.04 150.651 1323.45 151.376C1324.9 152.059 1326.05 152.869 1326.91 153.808C1327.63 154.533 1328.14 155.387 1328.44 156.368C1328.78 157.307 1328.96 158.331 1328.96 159.44C1328.96 161.616 1328.34 163.557 1327.1 165.264C1325.9 166.928 1324.24 168.251 1322.11 169.232C1320.02 170.171 1317.61 170.64 1314.88 170.64ZM680.72 250V214.352C680.72 212.133 681.189 210.149 682.128 208.4C683.109 206.608 684.475 205.179 686.224 204.112C687.973 203.045 690 202.512 692.304 202.512C693.883 202.512 695.355 202.768 696.72 203.28C698.085 203.749 699.301 204.411 700.368 205.264L697.424 212.752C696.869 212.453 696.336 212.219 695.824 212.048C695.312 211.877 694.843 211.792 694.416 211.792C693.648 211.792 693.008 211.92 692.496 212.176C691.984 212.432 691.6 212.816 691.344 213.328C691.131 213.84 691.024 214.48 691.024 215.248V250H685.84C684.731 250 683.728 250 682.832 250C681.979 250 681.275 250 680.72 250ZM675.728 225.552V216.976H698V225.552H675.728ZM718.48 250.64C714.981 250.64 711.845 249.893 709.072 248.4C706.299 246.864 704.123 244.773 702.544 242.128C700.965 239.44 700.176 236.411 700.176 233.04C700.176 229.584 700.965 226.533 702.544 223.888C704.123 221.2 706.299 219.109 709.072 217.616C711.845 216.08 714.981 215.312 718.48 215.312C722.021 215.312 725.157 216.08 727.888 217.616C730.661 219.109 732.837 221.2 734.416 223.888C735.995 226.533 736.784 229.584 736.784 233.04C736.784 236.411 735.995 239.44 734.416 242.128C732.837 244.773 730.661 246.864 727.888 248.4C725.157 249.893 722.021 250.64 718.48 250.64ZM718.48 241.808C720.016 241.808 721.36 241.424 722.512 240.656C723.707 239.888 724.645 238.843 725.328 237.52C726.011 236.197 726.331 234.704 726.288 233.04C726.331 231.291 726.011 229.755 725.328 228.432C724.645 227.067 723.707 226.021 722.512 225.296C721.36 224.528 720.016 224.144 718.48 224.144C716.987 224.144 715.643 224.528 714.448 225.296C713.253 226.064 712.315 227.109 711.632 228.432C710.949 229.755 710.608 231.291 710.608 233.04C710.608 234.704 710.949 236.197 711.632 237.52C712.315 238.843 713.253 239.888 714.448 240.656C715.643 241.424 716.987 241.808 718.48 241.808ZM743.482 250V216.016H753.274L753.722 227.088L751.802 224.912C752.356 223.12 753.21 221.499 754.362 220.048C755.514 218.597 756.879 217.445 758.458 216.592C760.079 215.739 761.764 215.312 763.514 215.312C764.282 215.312 764.986 215.376 765.626 215.504C766.308 215.589 766.906 215.739 767.418 215.952L764.666 227.28C764.196 227.024 763.556 226.811 762.746 226.64C761.978 226.427 761.167 226.32 760.314 226.32C759.375 226.32 758.5 226.491 757.69 226.832C756.922 227.131 756.239 227.579 755.642 228.176C755.087 228.773 754.639 229.477 754.298 230.288C753.999 231.099 753.85 232.016 753.85 233.04V250H743.482ZM794.131 250V205.2H813.011C816.296 205.2 819.304 205.755 822.035 206.864C824.765 207.931 827.112 209.467 829.075 211.472C831.037 213.435 832.552 215.803 833.619 218.576C834.685 221.307 835.219 224.315 835.219 227.6C835.219 230.928 834.685 233.957 833.619 236.688C832.552 239.419 831.037 241.787 829.075 243.792C827.112 245.755 824.765 247.291 822.035 248.4C819.347 249.467 816.339 250 813.011 250H794.131ZM805.075 242.448L803.667 240.336H812.691C814.44 240.336 816.019 240.037 817.427 239.44C818.835 238.843 820.029 237.989 821.011 236.88C822.035 235.728 822.803 234.384 823.315 232.848C823.869 231.269 824.147 229.52 824.147 227.6C824.147 225.68 823.869 223.952 823.315 222.416C822.803 220.837 822.035 219.493 821.011 218.384C820.029 217.232 818.835 216.357 817.427 215.76C816.019 215.163 814.44 214.864 812.691 214.864H803.475L805.075 212.88V242.448ZM858.736 250.64C854.981 250.64 851.696 249.893 848.88 248.4C846.107 246.907 843.952 244.859 842.416 242.256C840.923 239.611 840.176 236.603 840.176 233.232C840.176 230.587 840.603 228.176 841.456 226C842.309 223.781 843.504 221.883 845.04 220.304C846.619 218.725 848.453 217.509 850.544 216.656C852.677 215.76 855.003 215.312 857.52 215.312C859.909 215.312 862.085 215.739 864.048 216.592C866.011 217.445 867.717 218.64 869.168 220.176C870.619 221.712 871.728 223.525 872.496 225.616C873.264 227.707 873.627 229.989 873.584 232.464L873.52 235.28H846.512L844.976 229.456H865.136L864.048 230.608V229.328C863.963 228.261 863.621 227.344 863.024 226.576C862.469 225.765 861.723 225.125 860.784 224.656C859.888 224.187 858.864 223.952 857.712 223.952C856.005 223.952 854.555 224.293 853.36 224.976C852.208 225.616 851.333 226.555 850.736 227.792C850.139 229.029 849.84 230.565 849.84 232.4C849.84 234.235 850.224 235.856 850.992 237.264C851.803 238.672 852.955 239.76 854.448 240.528C855.984 241.296 857.797 241.68 859.888 241.68C861.296 241.68 862.576 241.467 863.728 241.04C864.88 240.613 866.117 239.888 867.44 238.864L872.24 245.648C870.917 246.757 869.509 247.696 868.016 248.464C866.523 249.189 864.987 249.723 863.408 250.064C861.872 250.448 860.315 250.64 858.736 250.64ZM891.562 250.64C888.32 250.64 885.419 250.128 882.859 249.104C880.299 248.037 878.251 246.587 876.715 244.752L882.987 239.376C884.309 240.699 885.803 241.68 887.467 242.32C889.131 242.917 890.709 243.216 892.203 243.216C892.757 243.216 893.248 243.152 893.675 243.024C894.101 242.896 894.464 242.725 894.763 242.512C895.104 242.256 895.36 241.979 895.531 241.68C895.701 241.339 895.787 240.955 895.787 240.528C895.787 239.675 895.424 239.035 894.699 238.608C894.357 238.395 893.739 238.139 892.843 237.84C891.947 237.499 890.795 237.157 889.387 236.816C887.381 236.304 885.632 235.685 884.139 234.96C882.688 234.235 881.493 233.403 880.555 232.464C879.701 231.611 879.04 230.629 878.571 229.52C878.144 228.411 877.931 227.173 877.931 225.808C877.931 223.717 878.549 221.883 879.786 220.304C881.067 218.725 882.731 217.509 884.779 216.656C886.827 215.76 889.045 215.312 891.435 215.312C893.312 215.312 895.083 215.525 896.747 215.952C898.453 216.379 900.032 216.976 901.483 217.744C902.976 218.512 904.299 219.429 905.451 220.496L900.011 226.576C899.285 225.851 898.432 225.211 897.451 224.656C896.469 224.059 895.488 223.589 894.507 223.248C893.525 222.864 892.608 222.672 891.755 222.672C891.115 222.672 890.539 222.736 890.027 222.864C889.557 222.949 889.152 223.12 888.811 223.376C888.512 223.589 888.277 223.867 888.107 224.208C887.936 224.507 887.851 224.848 887.851 225.232C887.851 225.701 887.957 226.128 888.171 226.512C888.427 226.853 888.768 227.173 889.195 227.472C889.579 227.685 890.24 227.963 891.179 228.304C892.16 228.645 893.44 229.029 895.019 229.456C897.024 230.011 898.731 230.651 900.139 231.376C901.589 232.059 902.741 232.869 903.595 233.808C904.32 234.533 904.832 235.387 905.131 236.368C905.472 237.307 905.643 238.331 905.643 239.44C905.643 241.616 905.024 243.557 903.787 245.264C902.592 246.928 900.928 248.251 898.795 249.232C896.704 250.171 894.293 250.64 891.562 250.64ZM912.37 250V216.016H922.674V250H912.37ZM917.554 209.296C915.591 209.296 914.055 208.848 912.946 207.952C911.879 207.013 911.346 205.691 911.346 203.984C911.346 202.405 911.901 201.125 913.01 200.144C914.119 199.163 915.634 198.672 917.554 198.672C919.431 198.672 920.903 199.141 921.97 200.08C923.079 200.976 923.634 202.277 923.634 203.984C923.634 205.563 923.079 206.843 921.97 207.824C920.903 208.805 919.431 209.296 917.554 209.296ZM947.909 264.72C945.178 264.72 942.426 264.315 939.653 263.504C936.922 262.736 934.703 261.712 932.997 260.432L936.581 253.136C937.946 254.075 939.482 254.8 941.189 255.312C942.938 255.867 944.751 256.144 946.628 256.144C948.805 256.144 950.575 255.824 951.941 255.184C953.306 254.544 954.309 253.584 954.949 252.304C955.631 251.024 955.973 249.424 955.973 247.504V241.872L957.893 242.256C957.637 243.579 956.911 244.816 955.717 245.968C954.565 247.12 953.135 248.037 951.429 248.72C949.722 249.403 947.93 249.744 946.053 249.744C942.981 249.744 940.229 249.04 937.797 247.632C935.365 246.181 933.445 244.197 932.036 241.68C930.671 239.12 929.989 236.176 929.989 232.848C929.989 229.435 930.671 226.405 932.036 223.76C933.445 221.115 935.343 219.045 937.733 217.552C940.122 216.059 942.81 215.312 945.797 215.312C947.034 215.312 948.229 215.461 949.381 215.76C950.575 216.016 951.663 216.4 952.645 216.912C953.669 217.424 954.565 218 955.333 218.64C956.143 219.28 956.805 219.984 957.317 220.752C957.829 221.52 958.149 222.288 958.277 223.056L956.165 223.696L956.549 216.016H966.341V247.184C966.341 249.957 965.914 252.432 965.061 254.608C964.25 256.784 963.034 258.619 961.413 260.112C959.834 261.605 957.914 262.736 955.653 263.504C953.391 264.315 950.81 264.72 947.909 264.72ZM948.165 241.744C949.829 241.744 951.258 241.381 952.453 240.656C953.69 239.931 954.629 238.907 955.269 237.584C955.951 236.261 956.293 234.725 956.293 232.976C956.293 231.141 955.951 229.563 955.269 228.24C954.629 226.917 953.69 225.893 952.453 225.168C951.258 224.4 949.829 224.016 948.165 224.016C946.586 224.016 945.199 224.4 944.005 225.168C942.81 225.893 941.871 226.917 941.189 228.24C940.549 229.563 940.229 231.12 940.229 232.912C940.229 234.704 940.549 236.261 941.189 237.584C941.871 238.907 942.81 239.931 944.005 240.656C945.199 241.381 946.586 241.744 948.165 241.744ZM975.232 250V216.016H985.024L985.408 222.928L983.296 223.696C983.765 222.16 984.597 220.773 985.792 219.536C987.029 218.256 988.501 217.232 990.208 216.464C991.914 215.696 993.706 215.312 995.584 215.312C998.144 215.312 1000.3 215.845 1002.05 216.912C1003.8 217.936 1005.1 219.493 1005.95 221.584C1006.85 223.632 1007.3 226.171 1007.3 229.2V250H996.992V229.968C996.992 228.603 996.8 227.472 996.416 226.576C996.032 225.68 995.456 225.019 994.688 224.592C993.92 224.165 992.96 223.973 991.808 224.016C990.912 224.016 990.08 224.165 989.312 224.464C988.544 224.72 987.861 225.125 987.264 225.68C986.709 226.192 986.282 226.789 985.984 227.472C985.685 228.155 985.536 228.923 985.536 229.776V250H980.352C979.242 250 978.24 250 977.344 250C976.49 250 975.786 250 975.232 250ZM1037.38 250V205.2H1048.32V240.336H1068.29V250H1037.38ZM1090.11 250.64C1086.61 250.64 1083.47 249.893 1080.7 248.4C1077.92 246.864 1075.75 244.773 1074.17 242.128C1072.59 239.44 1071.8 236.411 1071.8 233.04C1071.8 229.584 1072.59 226.533 1074.17 223.888C1075.75 221.2 1077.92 219.109 1080.7 217.616C1083.47 216.08 1086.61 215.312 1090.11 215.312C1093.65 215.312 1096.78 216.08 1099.51 217.616C1102.29 219.109 1104.46 221.2 1106.04 223.888C1107.62 226.533 1108.41 229.584 1108.41 233.04C1108.41 236.411 1107.62 239.44 1106.04 242.128C1104.46 244.773 1102.29 246.864 1099.51 248.4C1096.78 249.893 1093.65 250.64 1090.11 250.64ZM1090.11 241.808C1091.64 241.808 1092.99 241.424 1094.14 240.656C1095.33 239.888 1096.27 238.843 1096.95 237.52C1097.64 236.197 1097.96 234.704 1097.91 233.04C1097.96 231.291 1097.64 229.755 1096.95 228.432C1096.27 227.067 1095.33 226.021 1094.14 225.296C1092.99 224.528 1091.64 224.144 1090.11 224.144C1088.61 224.144 1087.27 224.528 1086.07 225.296C1084.88 226.064 1083.94 227.109 1083.26 228.432C1082.57 229.755 1082.23 231.291 1082.23 233.04C1082.23 234.704 1082.57 236.197 1083.26 237.52C1083.94 238.843 1084.88 239.888 1086.07 240.656C1087.27 241.424 1088.61 241.808 1090.11 241.808ZM1124.67 250L1110.46 216.016H1121.79L1130.23 241.168L1127.74 241.488L1136.44 216.016H1147.71L1132.73 250H1124.67ZM1168.3 250.64C1164.54 250.64 1161.26 249.893 1158.44 248.4C1155.67 246.907 1153.51 244.859 1151.98 242.256C1150.49 239.611 1149.74 236.603 1149.74 233.232C1149.74 230.587 1150.17 228.176 1151.02 226C1151.87 223.781 1153.07 221.883 1154.6 220.304C1156.18 218.725 1158.02 217.509 1160.11 216.656C1162.24 215.76 1164.57 215.312 1167.08 215.312C1169.47 215.312 1171.65 215.739 1173.61 216.592C1175.57 217.445 1177.28 218.64 1178.73 220.176C1180.18 221.712 1181.29 223.525 1182.06 225.616C1182.83 227.707 1183.19 229.989 1183.15 232.464L1183.08 235.28H1156.07L1154.54 229.456H1174.7L1173.61 230.608V229.328C1173.53 228.261 1173.18 227.344 1172.59 226.576C1172.03 225.765 1171.29 225.125 1170.35 224.656C1169.45 224.187 1168.43 223.952 1167.27 223.952C1165.57 223.952 1164.12 224.293 1162.92 224.976C1161.77 225.616 1160.9 226.555 1160.3 227.792C1159.7 229.029 1159.4 230.565 1159.4 232.4C1159.4 234.235 1159.79 235.856 1160.55 237.264C1161.37 238.672 1162.52 239.76 1164.01 240.528C1165.55 241.296 1167.36 241.68 1169.45 241.68C1170.86 241.68 1172.14 241.467 1173.29 241.04C1174.44 240.613 1175.68 239.888 1177 238.864L1181.8 245.648C1180.48 246.757 1179.07 247.696 1177.58 248.464C1176.09 249.189 1174.55 249.723 1172.97 250.064C1171.43 250.448 1169.88 250.64 1168.3 250.64ZM1189.67 250V216.016H1199.46L1199.91 227.088L1197.99 224.912C1198.54 223.12 1199.4 221.499 1200.55 220.048C1201.7 218.597 1203.07 217.445 1204.65 216.592C1206.27 215.739 1207.95 215.312 1209.7 215.312C1210.47 215.312 1211.17 215.376 1211.81 215.504C1212.5 215.589 1213.09 215.739 1213.61 215.952L1210.85 227.28C1210.38 227.024 1209.74 226.811 1208.93 226.64C1208.17 226.427 1207.35 226.32 1206.5 226.32C1205.56 226.32 1204.69 226.491 1203.88 226.832C1203.11 227.131 1202.43 227.579 1201.83 228.176C1201.27 228.773 1200.83 229.477 1200.49 230.288C1200.19 231.099 1200.04 232.016 1200.04 233.04V250H1189.67ZM1230.31 250.64C1227.07 250.64 1224.17 250.128 1221.61 249.104C1219.05 248.037 1217 246.587 1215.46 244.752L1221.74 239.376C1223.06 240.699 1224.55 241.68 1226.22 242.32C1227.88 242.917 1229.46 243.216 1230.95 243.216C1231.51 243.216 1232 243.152 1232.42 243.024C1232.85 242.896 1233.21 242.725 1233.51 242.512C1233.85 242.256 1234.11 241.979 1234.28 241.68C1234.45 241.339 1234.54 240.955 1234.54 240.528C1234.54 239.675 1234.17 239.035 1233.45 238.608C1233.11 238.395 1232.49 238.139 1231.59 237.84C1230.7 237.499 1229.54 237.157 1228.14 236.816C1226.13 236.304 1224.38 235.685 1222.89 234.96C1221.44 234.235 1220.24 233.403 1219.3 232.464C1218.45 231.611 1217.79 230.629 1217.32 229.52C1216.89 228.411 1216.68 227.173 1216.68 225.808C1216.68 223.717 1217.3 221.883 1218.54 220.304C1219.82 218.725 1221.48 217.509 1223.53 216.656C1225.58 215.76 1227.8 215.312 1230.18 215.312C1232.06 215.312 1233.83 215.525 1235.5 215.952C1237.2 216.379 1238.78 216.976 1240.23 217.744C1241.73 218.512 1243.05 219.429 1244.2 220.496L1238.76 226.576C1238.04 225.851 1237.18 225.211 1236.2 224.656C1235.22 224.059 1234.24 223.589 1233.26 223.248C1232.28 222.864 1231.36 222.672 1230.5 222.672C1229.86 222.672 1229.29 222.736 1228.78 222.864C1228.31 222.949 1227.9 223.12 1227.56 223.376C1227.26 223.589 1227.03 223.867 1226.86 224.208C1226.69 224.507 1226.6 224.848 1226.6 225.232C1226.6 225.701 1226.71 226.128 1226.92 226.512C1227.18 226.853 1227.52 227.173 1227.94 227.472C1228.33 227.685 1228.99 227.963 1229.93 228.304C1230.91 228.645 1232.19 229.029 1233.77 229.456C1235.77 230.011 1237.48 230.651 1238.89 231.376C1240.34 232.059 1241.49 232.869 1242.34 233.808C1243.07 234.533 1243.58 235.387 1243.88 236.368C1244.22 237.307 1244.39 238.331 1244.39 239.44C1244.39 241.616 1243.77 243.557 1242.54 245.264C1241.34 246.928 1239.68 248.251 1237.54 249.232C1235.45 250.171 1233.04 250.64 1230.31 250.64Z" fill="black"/>
<path d="M922.532 349.645C922.535 382.156 908.482 401.585 855.958 429.793C816.308 411.564 776.788 384.622 787.199 343.899C797.846 302.247 839.407 302.252 850.938 344.495C861.785 294.357 922.528 301.312 922.532 349.645Z" fill="#FFC5C5"/>
<path d="M684.903 378.674C683.575 378.674 682.391 378.394 681.351 377.834C680.311 377.258 679.487 376.474 678.879 375.482C678.287 374.474 677.991 373.338 677.991 372.074V361.706H681.111V371.858C681.111 372.61 681.279 373.282 681.615 373.874C681.967 374.466 682.431 374.938 683.007 375.29C683.583 375.626 684.215 375.794 684.903 375.794C685.639 375.794 686.303 375.626 686.895 375.29C687.487 374.938 687.959 374.466 688.311 373.874C688.663 373.282 688.839 372.61 688.839 371.858V361.706H691.815V372.074C691.815 373.338 691.511 374.474 690.903 375.482C690.311 376.474 689.495 377.258 688.455 377.834C687.415 378.394 686.231 378.674 684.903 378.674ZM699.832 378.77C698.728 378.77 697.728 378.586 696.832 378.218C695.952 377.834 695.232 377.29 694.672 376.586L696.568 374.954C697.048 375.482 697.584 375.874 698.176 376.13C698.768 376.37 699.392 376.49 700.048 376.49C700.32 376.49 700.56 376.458 700.768 376.394C700.992 376.33 701.184 376.234 701.344 376.106C701.504 375.978 701.624 375.826 701.704 375.65C701.8 375.474 701.848 375.282 701.848 375.074C701.848 374.69 701.704 374.386 701.416 374.162C701.256 374.066 701.008 373.954 700.672 373.826C700.336 373.682 699.896 373.546 699.352 373.418C698.488 373.194 697.76 372.938 697.168 372.65C696.592 372.346 696.144 372.01 695.824 371.642C695.552 371.322 695.352 370.978 695.224 370.61C695.096 370.226 695.032 369.802 695.032 369.338C695.032 368.618 695.24 367.978 695.656 367.418C696.088 366.858 696.656 366.418 697.36 366.098C698.064 365.778 698.848 365.618 699.712 365.618C700.352 365.618 700.968 365.698 701.56 365.858C702.168 366.018 702.728 366.25 703.24 366.554C703.752 366.842 704.192 367.194 704.56 367.61L702.928 369.41C702.64 369.122 702.312 368.866 701.944 368.642C701.592 368.402 701.232 368.218 700.864 368.09C700.496 367.962 700.152 367.898 699.832 367.898C699.528 367.898 699.256 367.93 699.016 367.994C698.776 368.042 698.576 368.122 698.416 368.234C698.256 368.346 698.128 368.49 698.032 368.666C697.952 368.826 697.912 369.01 697.912 369.218C697.928 369.426 697.976 369.618 698.056 369.794C698.152 369.954 698.28 370.09 698.44 370.202C698.6 370.314 698.856 370.442 699.208 370.586C699.56 370.73 700.016 370.866 700.576 370.994C701.36 371.202 702.016 371.434 702.544 371.69C703.072 371.946 703.488 372.242 703.792 372.578C704.096 372.866 704.312 373.202 704.44 373.586C704.568 373.97 704.632 374.402 704.632 374.882C704.632 375.634 704.416 376.306 703.984 376.898C703.568 377.474 703 377.93 702.28 378.266C701.56 378.602 700.744 378.77 699.832 378.77ZM713.161 378.77C711.833 378.77 710.657 378.498 709.633 377.954C708.625 377.394 707.833 376.634 707.257 375.674C706.697 374.698 706.417 373.578 706.417 372.314C706.417 371.322 706.577 370.418 706.897 369.602C707.217 368.786 707.665 368.082 708.241 367.49C708.817 366.882 709.497 366.418 710.281 366.098C711.081 365.762 711.945 365.594 712.873 365.594C713.721 365.594 714.497 365.754 715.201 366.074C715.921 366.394 716.545 366.834 717.073 367.394C717.601 367.938 718.001 368.594 718.273 369.362C718.561 370.114 718.697 370.938 718.681 371.834L718.657 372.89H708.433L707.857 370.85H716.185L715.825 371.258V370.706C715.777 370.226 715.617 369.802 715.345 369.434C715.073 369.05 714.721 368.754 714.289 368.546C713.873 368.322 713.409 368.21 712.897 368.21C712.113 368.21 711.449 368.362 710.905 368.666C710.361 368.954 709.945 369.386 709.657 369.962C709.385 370.538 709.249 371.25 709.249 372.098C709.249 372.914 709.417 373.626 709.753 374.234C710.105 374.842 710.601 375.314 711.241 375.65C711.881 375.986 712.625 376.154 713.473 376.154C714.065 376.154 714.609 376.058 715.105 375.866C715.617 375.674 716.161 375.33 716.737 374.834L718.177 376.85C717.745 377.25 717.249 377.594 716.689 377.882C716.145 378.154 715.569 378.37 714.961 378.53C714.353 378.69 713.753 378.77 713.161 378.77ZM733.751 378.77C732.567 378.77 731.503 378.482 730.559 377.906C729.615 377.33 728.871 376.546 728.327 375.554C727.783 374.562 727.511 373.442 727.511 372.194C727.511 370.946 727.783 369.826 728.327 368.834C728.871 367.842 729.615 367.058 730.559 366.482C731.503 365.906 732.567 365.618 733.751 365.618C734.871 365.618 735.895 365.842 736.823 366.29C737.767 366.722 738.487 367.314 738.983 368.066L737.375 370.034C737.135 369.698 736.831 369.394 736.463 369.122C736.095 368.85 735.695 368.634 735.263 368.474C734.847 368.314 734.439 368.234 734.039 368.234C733.319 368.234 732.679 368.41 732.119 368.762C731.575 369.098 731.143 369.57 730.823 370.178C730.503 370.77 730.343 371.442 730.343 372.194C730.343 372.946 730.503 373.618 730.823 374.21C731.159 374.802 731.607 375.274 732.167 375.626C732.727 375.978 733.351 376.154 734.039 376.154C734.471 376.154 734.879 376.09 735.263 375.962C735.647 375.818 736.015 375.618 736.367 375.362C736.735 375.106 737.071 374.786 737.375 374.402L738.983 376.37C738.455 377.074 737.711 377.65 736.751 378.098C735.791 378.546 734.791 378.77 733.751 378.77ZM747.001 378.77C745.737 378.77 744.609 378.49 743.617 377.93C742.625 377.354 741.841 376.57 741.265 375.578C740.705 374.586 740.425 373.458 740.425 372.194C740.425 370.93 740.705 369.802 741.265 368.81C741.841 367.818 742.625 367.042 743.617 366.482C744.609 365.906 745.737 365.618 747.001 365.618C748.249 365.618 749.369 365.906 750.361 366.482C751.353 367.042 752.129 367.818 752.689 368.81C753.265 369.802 753.553 370.93 753.553 372.194C753.553 373.458 753.265 374.586 752.689 375.578C752.129 376.57 751.353 377.354 750.361 377.93C749.369 378.49 748.249 378.77 747.001 378.77ZM747.001 376.154C747.689 376.154 748.305 375.986 748.849 375.65C749.393 375.298 749.817 374.826 750.121 374.234C750.441 373.626 750.593 372.946 750.577 372.194C750.593 371.426 750.441 370.746 750.121 370.154C749.817 369.546 749.393 369.074 748.849 368.738C748.305 368.402 747.689 368.234 747.001 368.234C746.313 368.234 745.689 368.41 745.129 368.762C744.585 369.098 744.161 369.57 743.857 370.178C743.553 370.77 743.401 371.442 743.401 372.194C743.401 372.946 743.553 373.626 743.857 374.234C744.161 374.826 744.585 375.298 745.129 375.65C745.689 375.986 746.313 376.154 747.001 376.154ZM761.306 378.77C760.17 378.77 759.154 378.49 758.258 377.93C757.378 377.354 756.674 376.578 756.146 375.602C755.634 374.61 755.378 373.474 755.378 372.194C755.378 370.93 755.634 369.802 756.146 368.81C756.658 367.818 757.354 367.042 758.234 366.482C759.13 365.906 760.138 365.618 761.258 365.618C761.866 365.618 762.45 365.714 763.01 365.906C763.586 366.098 764.098 366.362 764.546 366.698C765.01 367.018 765.37 367.378 765.626 367.778C765.898 368.178 766.042 368.594 766.058 369.026L765.266 369.122V360.77H768.218V378.53H765.362L765.29 375.578L765.866 375.626C765.85 376.01 765.714 376.386 765.458 376.754C765.202 377.122 764.858 377.458 764.426 377.762C764.01 378.066 763.53 378.314 762.986 378.506C762.442 378.682 761.882 378.77 761.306 378.77ZM761.858 376.274C762.546 376.274 763.154 376.106 763.682 375.77C764.21 375.418 764.618 374.938 764.906 374.33C765.21 373.706 765.362 372.994 765.362 372.194C765.362 371.394 765.21 370.69 764.906 370.082C764.618 369.474 764.21 368.994 763.682 368.642C763.154 368.29 762.546 368.114 761.858 368.114C761.154 368.114 760.538 368.29 760.01 368.642C759.498 368.994 759.09 369.474 758.786 370.082C758.482 370.69 758.33 371.394 758.33 372.194C758.33 372.994 758.482 373.706 758.786 374.33C759.09 374.938 759.498 375.418 760.01 375.77C760.538 376.106 761.154 376.274 761.858 376.274ZM777.497 378.77C776.169 378.77 774.993 378.498 773.969 377.954C772.961 377.394 772.169 376.634 771.593 375.674C771.033 374.698 770.753 373.578 770.753 372.314C770.753 371.322 770.913 370.418 771.233 369.602C771.553 368.786 772.001 368.082 772.577 367.49C773.153 366.882 773.833 366.418 774.617 366.098C775.417 365.762 776.281 365.594 777.209 365.594C778.057 365.594 778.833 365.754 779.537 366.074C780.257 366.394 780.881 366.834 781.409 367.394C781.937 367.938 782.337 368.594 782.609 369.362C782.897 370.114 783.033 370.938 783.017 371.834L782.993 372.89H772.769L772.193 370.85H780.521L780.161 371.258V370.706C780.113 370.226 779.953 369.802 779.681 369.434C779.409 369.05 779.057 368.754 778.625 368.546C778.209 368.322 777.745 368.21 777.233 368.21C776.449 368.21 775.785 368.362 775.241 368.666C774.697 368.954 774.281 369.386 773.993 369.962C773.721 370.538 773.585 371.25 773.585 372.098C773.585 372.914 773.753 373.626 774.089 374.234C774.441 374.842 774.937 375.314 775.577 375.65C776.217 375.986 776.961 376.154 777.809 376.154C778.401 376.154 778.945 376.058 779.441 375.866C779.953 375.674 780.497 375.33 781.073 374.834L782.513 376.85C782.081 377.25 781.585 377.594 781.025 377.882C780.481 378.154 779.905 378.37 779.297 378.53C778.689 378.69 778.089 378.77 777.497 378.77ZM799.444 378.53V361.73H806.716C807.772 361.73 808.716 361.97 809.548 362.45C810.38 362.93 811.036 363.586 811.516 364.418C811.996 365.234 812.236 366.17 812.236 367.226C812.236 368.298 811.996 369.266 811.516 370.13C811.036 370.994 810.38 371.674 809.548 372.17C808.716 372.666 807.772 372.914 806.716 372.914H803.548V378.53H799.444ZM803.5 369.29H806.164C806.516 369.29 806.828 369.21 807.1 369.05C807.388 368.874 807.62 368.634 807.796 368.33C807.972 368.026 808.06 367.682 808.06 367.298C808.06 366.898 807.972 366.554 807.796 366.266C807.62 365.978 807.388 365.754 807.1 365.594C806.828 365.434 806.516 365.354 806.164 365.354H803.5V369.29ZM815.335 378.53V361.73H819.439V374.906H826.927V378.53H815.335ZM827.896 378.53L834.544 361.73H838.024L844.624 378.53H840.496L837.304 370.01C837.192 369.674 837.064 369.314 836.92 368.93C836.792 368.546 836.664 368.146 836.536 367.73C836.408 367.314 836.288 366.914 836.176 366.53C836.064 366.146 835.968 365.786 835.888 365.45L836.584 365.426C836.488 365.826 836.384 366.218 836.272 366.602C836.16 366.986 836.04 367.37 835.912 367.754C835.784 368.138 835.648 368.522 835.504 368.906C835.376 369.274 835.24 369.658 835.096 370.058L831.928 378.53H827.896ZM831.064 375.314L832.36 372.194H840.04L841.336 375.314H831.064ZM846.718 378.53V361.73H854.158C855.326 361.73 856.302 361.898 857.086 362.234C857.886 362.554 858.494 363.026 858.91 363.65C859.326 364.258 859.534 365.002 859.534 365.882C859.534 366.826 859.294 367.618 858.814 368.258C858.35 368.898 857.678 369.346 856.798 369.602L856.774 369.098C857.494 369.274 858.126 369.57 858.67 369.986C859.23 370.386 859.662 370.882 859.966 371.474C860.27 372.05 860.422 372.706 860.422 373.442C860.422 374.29 860.27 375.034 859.966 375.674C859.678 376.314 859.262 376.85 858.718 377.282C858.19 377.698 857.558 378.01 856.822 378.218C856.102 378.426 855.302 378.53 854.422 378.53H846.718ZM850.606 375.098H854.254C854.926 375.098 855.446 374.938 855.814 374.618C856.198 374.298 856.39 373.842 856.39 373.25C856.39 372.882 856.294 372.57 856.102 372.314C855.926 372.058 855.67 371.866 855.334 371.738C854.998 371.61 854.598 371.546 854.134 371.546H850.606V375.098ZM850.606 368.45H853.606C854.022 368.45 854.374 368.386 854.662 368.258C854.95 368.114 855.166 367.922 855.31 367.682C855.47 367.426 855.55 367.13 855.55 366.794C855.55 366.282 855.374 365.882 855.022 365.594C854.67 365.306 854.142 365.162 853.438 365.162H850.606V368.45ZM862.922 378.53L862.106 376.514L866.93 371.186C867.218 370.882 867.522 370.538 867.842 370.154C868.162 369.77 868.466 369.378 868.754 368.978C869.058 368.562 869.298 368.162 869.474 367.778C869.666 367.394 869.762 367.05 869.762 366.746C869.762 366.426 869.69 366.146 869.546 365.906C869.418 365.666 869.218 365.482 868.946 365.354C868.69 365.21 868.354 365.138 867.938 365.138C867.586 365.138 867.242 365.234 866.906 365.426C866.57 365.618 866.25 365.906 865.946 366.29C865.658 366.658 865.386 367.13 865.13 367.706L862.106 366.026C862.442 365.098 862.914 364.282 863.522 363.578C864.146 362.874 864.874 362.322 865.706 361.922C866.538 361.522 867.426 361.33 868.37 361.346C869.362 361.346 870.25 361.554 871.034 361.97C871.834 362.386 872.466 362.962 872.93 363.698C873.41 364.418 873.65 365.266 873.65 366.242C873.65 366.674 873.586 367.122 873.458 367.586C873.346 368.05 873.154 368.546 872.882 369.074C872.626 369.586 872.282 370.138 871.85 370.73C871.418 371.322 870.89 371.962 870.266 372.65L866.546 376.706L866.042 374.906H874.394V378.53H862.922ZM882.67 378.77C881.166 378.77 879.886 378.426 878.83 377.738C877.774 377.05 876.966 376.066 876.406 374.786C875.846 373.49 875.566 371.938 875.566 370.13C875.566 368.322 875.846 366.778 876.406 365.498C876.966 364.202 877.774 363.21 878.83 362.522C879.886 361.834 881.166 361.49 882.67 361.49C884.174 361.49 885.454 361.834 886.51 362.522C887.566 363.21 888.374 364.202 888.934 365.498C889.494 366.778 889.774 368.322 889.774 370.13C889.774 371.938 889.494 373.49 888.934 374.786C888.374 376.066 887.566 377.05 886.51 377.738C885.454 378.426 884.174 378.77 882.67 378.77ZM882.67 375.29C883.694 375.29 884.478 374.842 885.022 373.946C885.582 373.05 885.862 371.778 885.862 370.13C885.862 368.418 885.582 367.106 885.022 366.194C884.478 365.282 883.694 364.826 882.67 364.826C881.646 364.826 880.854 365.282 880.294 366.194C879.734 367.106 879.454 368.418 879.454 370.13C879.454 371.778 879.734 373.05 880.294 373.946C880.854 374.842 881.646 375.29 882.67 375.29ZM892.195 378.53L891.379 376.514L896.203 371.186C896.491 370.882 896.795 370.538 897.115 370.154C897.435 369.77 897.739 369.378 898.027 368.978C898.331 368.562 898.571 368.162 898.747 367.778C898.939 367.394 899.035 367.05 899.035 366.746C899.035 366.426 898.963 366.146 898.819 365.906C898.691 365.666 898.491 365.482 898.219 365.354C897.963 365.21 897.627 365.138 897.211 365.138C896.859 365.138 896.515 365.234 896.179 365.426C895.843 365.618 895.523 365.906 895.219 366.29C894.931 366.658 894.659 367.13 894.403 367.706L891.379 366.026C891.715 365.098 892.187 364.282 892.795 363.578C893.419 362.874 894.147 362.322 894.979 361.922C895.811 361.522 896.699 361.33 897.643 361.346C898.635 361.346 899.523 361.554 900.307 361.97C901.107 362.386 901.739 362.962 902.203 363.698C902.683 364.418 902.923 365.266 902.923 366.242C902.923 366.674 902.859 367.122 902.731 367.586C902.619 368.05 902.427 368.546 902.155 369.074C901.899 369.586 901.555 370.138 901.123 370.73C900.691 371.322 900.163 371.962 899.539 372.65L895.819 376.706L895.315 374.906H903.667V378.53H892.195ZM910.744 378.77C909.384 378.77 908.2 378.49 907.192 377.93C906.184 377.354 905.256 376.37 904.408 374.978L907.384 373.106C907.72 373.65 908.072 374.09 908.44 374.426C908.824 374.762 909.216 375.01 909.616 375.17C910.032 375.314 910.456 375.386 910.888 375.386C911.336 375.386 911.744 375.29 912.112 375.098C912.48 374.89 912.776 374.61 913 374.258C913.224 373.89 913.336 373.466 913.336 372.986C913.336 372.49 913.24 372.082 913.048 371.762C912.856 371.426 912.576 371.17 912.208 370.994C911.84 370.818 911.392 370.73 910.864 370.73C910.64 370.73 910.384 370.762 910.096 370.826C909.824 370.874 909.536 370.946 909.232 371.042C908.928 371.138 908.616 371.25 908.296 371.378L907.408 369.002L911.44 364.562L912.544 365.186L905.584 365.066V361.586H915.904L916.672 363.074L911.128 369.002L910.192 367.874C910.32 367.826 910.528 367.778 910.816 367.73C911.104 367.666 911.376 367.634 911.632 367.634C912.368 367.634 913.064 367.77 913.72 368.042C914.376 368.314 914.96 368.69 915.472 369.17C915.984 369.65 916.384 370.21 916.672 370.85C916.96 371.49 917.104 372.186 917.104 372.938C917.104 374.058 916.816 375.058 916.24 375.938C915.68 376.818 914.92 377.514 913.96 378.026C913 378.522 911.928 378.77 910.744 378.77ZM934.37 378.53V364.73C934.37 363.978 934.538 363.306 934.874 362.714C935.21 362.106 935.674 361.634 936.266 361.298C936.858 360.946 937.538 360.77 938.306 360.77C938.85 360.77 939.354 360.866 939.818 361.058C940.298 361.25 940.69 361.506 940.994 361.826L940.082 364.01C939.874 363.85 939.65 363.722 939.41 363.626C939.186 363.514 938.97 363.458 938.762 363.458C938.442 363.458 938.17 363.514 937.946 363.626C937.738 363.722 937.578 363.874 937.466 364.082C937.37 364.29 937.322 364.546 937.322 364.85V378.53H935.834C935.562 378.53 935.298 378.53 935.042 378.53C934.802 378.53 934.578 378.53 934.37 378.53ZM932.402 368.738V366.146H940.178V368.738H932.402ZM947.93 378.77C946.666 378.77 945.538 378.49 944.546 377.93C943.554 377.354 942.77 376.57 942.194 375.578C941.634 374.586 941.354 373.458 941.354 372.194C941.354 370.93 941.634 369.802 942.194 368.81C942.77 367.818 943.554 367.042 944.546 366.482C945.538 365.906 946.666 365.618 947.93 365.618C949.178 365.618 950.298 365.906 951.29 366.482C952.282 367.042 953.058 367.818 953.618 368.81C954.194 369.802 954.482 370.93 954.482 372.194C954.482 373.458 954.194 374.586 953.618 375.578C953.058 376.57 952.282 377.354 951.29 377.93C950.298 378.49 949.178 378.77 947.93 378.77ZM947.93 376.154C948.618 376.154 949.234 375.986 949.778 375.65C950.322 375.298 950.746 374.826 951.05 374.234C951.37 373.626 951.522 372.946 951.506 372.194C951.522 371.426 951.37 370.746 951.05 370.154C950.746 369.546 950.322 369.074 949.778 368.738C949.234 368.402 948.618 368.234 947.93 368.234C947.242 368.234 946.618 368.41 946.058 368.762C945.514 369.098 945.09 369.57 944.786 370.178C944.482 370.77 944.33 371.442 944.33 372.194C944.33 372.946 944.482 373.626 944.786 374.234C945.09 374.826 945.514 375.298 946.058 375.65C946.618 375.986 947.242 376.154 947.93 376.154ZM957.124 378.53V365.882H960.004L960.052 369.914L959.668 369.002C959.844 368.362 960.148 367.786 960.58 367.274C961.012 366.762 961.508 366.362 962.068 366.074C962.644 365.77 963.236 365.618 963.844 365.618C964.116 365.618 964.372 365.642 964.612 365.69C964.868 365.738 965.076 365.794 965.236 365.858L964.468 369.074C964.276 368.978 964.052 368.906 963.796 368.858C963.556 368.794 963.308 368.762 963.052 368.762C962.636 368.762 962.244 368.842 961.876 369.002C961.524 369.146 961.212 369.354 960.94 369.626C960.684 369.898 960.476 370.218 960.316 370.586C960.156 370.938 960.076 371.33 960.076 371.762V378.53H957.124ZM977.312 377.33V363.77L978.224 365.786L974.648 367.466L973.928 363.842L978.728 361.49H981.344V377.33H977.312ZM974.264 378.53V374.906H984.488V378.53H974.264ZM992.515 378.698C991.251 378.698 990.099 378.45 989.059 377.954C988.035 377.442 987.187 376.706 986.515 375.746L988.723 373.298C989.379 374.034 989.979 374.53 990.523 374.786C991.083 375.042 991.699 375.17 992.371 375.17C992.883 375.17 993.339 375.066 993.739 374.858C994.139 374.65 994.451 374.362 994.675 373.994C994.899 373.626 995.011 373.218 995.011 372.77C995.011 372.29 994.891 371.866 994.651 371.498C994.427 371.114 994.115 370.818 993.715 370.61C993.331 370.386 992.891 370.274 992.395 370.274C992.043 370.274 991.707 370.306 991.387 370.37C991.083 370.418 990.755 370.522 990.403 370.682C990.051 370.826 989.619 371.042 989.107 371.33L987.355 368.978L988.387 361.586H998.035V365.066H990.355L991.387 363.722L990.619 368.978L989.203 368.474C989.491 368.218 989.851 367.994 990.283 367.802C990.731 367.594 991.203 367.426 991.699 367.298C992.211 367.17 992.715 367.106 993.211 367.106C994.283 367.106 995.235 367.354 996.067 367.85C996.899 368.33 997.555 369.002 998.035 369.866C998.531 370.714 998.779 371.698 998.779 372.818C998.779 373.922 998.499 374.922 997.939 375.818C997.395 376.698 996.651 377.402 995.707 377.93C994.763 378.442 993.699 378.698 992.515 378.698ZM1004.05 378.53L1015.16 361.73H1018.76L1007.53 378.53H1004.05ZM1005.2 370.634C1004.39 370.634 1003.66 370.434 1003.02 370.034C1002.38 369.618 1001.88 369.058 1001.51 368.354C1001.16 367.65 1000.98 366.842 1000.98 365.93C1000.98 365.034 1001.16 364.234 1001.51 363.53C1001.88 362.826 1002.37 362.274 1003 361.874C1003.64 361.474 1004.37 361.274 1005.2 361.274C1006.04 361.274 1006.76 361.474 1007.39 361.874C1008.01 362.274 1008.5 362.826 1008.85 363.53C1009.2 364.234 1009.38 365.042 1009.38 365.954C1009.38 366.834 1009.2 367.634 1008.83 368.354C1008.46 369.058 1007.96 369.618 1007.34 370.034C1006.72 370.434 1006 370.634 1005.2 370.634ZM1005.2 368.138C1005.46 368.138 1005.68 368.05 1005.85 367.874C1006.03 367.698 1006.16 367.45 1006.26 367.13C1006.36 366.794 1006.4 366.402 1006.4 365.954C1006.4 365.506 1006.36 365.122 1006.26 364.802C1006.16 364.466 1006.03 364.21 1005.85 364.034C1005.68 363.858 1005.46 363.77 1005.2 363.77C1004.95 363.77 1004.72 363.866 1004.53 364.058C1004.34 364.234 1004.19 364.482 1004.08 364.802C1003.98 365.122 1003.93 365.506 1003.93 365.954C1003.93 366.626 1004.04 367.162 1004.27 367.562C1004.51 367.946 1004.82 368.138 1005.2 368.138ZM1017.92 378.746C1017.12 378.746 1016.4 378.546 1015.74 378.146C1015.1 377.73 1014.6 377.17 1014.23 376.466C1013.86 375.762 1013.68 374.97 1013.68 374.09C1013.68 373.178 1013.85 372.37 1014.2 371.666C1014.57 370.962 1015.08 370.41 1015.72 370.01C1016.36 369.594 1017.09 369.386 1017.92 369.386C1018.74 369.386 1019.46 369.594 1020.08 370.01C1020.71 370.41 1021.2 370.962 1021.55 371.666C1021.9 372.37 1022.08 373.178 1022.08 374.09C1022.08 374.97 1021.89 375.762 1021.52 376.466C1021.17 377.17 1020.68 377.73 1020.06 378.146C1019.44 378.546 1018.72 378.746 1017.92 378.746ZM1017.92 376.274C1018.18 376.274 1018.4 376.186 1018.57 376.01C1018.75 375.818 1018.88 375.562 1018.98 375.242C1019.08 374.906 1019.12 374.522 1019.12 374.09C1019.12 373.418 1019.02 372.882 1018.81 372.482C1018.6 372.082 1018.31 371.882 1017.92 371.882C1017.67 371.882 1017.44 371.978 1017.25 372.17C1017.06 372.346 1016.91 372.602 1016.8 372.938C1016.7 373.258 1016.65 373.642 1016.65 374.09C1016.65 374.746 1016.76 375.274 1016.99 375.674C1017.23 376.074 1017.54 376.274 1017.92 376.274ZM1037.37 378.77C1036.1 378.77 1034.98 378.49 1033.98 377.93C1032.99 377.354 1032.21 376.57 1031.63 375.578C1031.07 374.586 1030.79 373.458 1030.79 372.194C1030.79 370.93 1031.07 369.802 1031.63 368.81C1032.21 367.818 1032.99 367.042 1033.98 366.482C1034.98 365.906 1036.1 365.618 1037.37 365.618C1038.62 365.618 1039.74 365.906 1040.73 366.482C1041.72 367.042 1042.5 367.818 1043.06 368.81C1043.63 369.802 1043.92 370.93 1043.92 372.194C1043.92 373.458 1043.63 374.586 1043.06 375.578C1042.5 376.57 1041.72 377.354 1040.73 377.93C1039.74 378.49 1038.62 378.77 1037.37 378.77ZM1037.37 376.154C1038.06 376.154 1038.67 375.986 1039.22 375.65C1039.76 375.298 1040.18 374.826 1040.49 374.234C1040.81 373.626 1040.96 372.946 1040.94 372.194C1040.96 371.426 1040.81 370.746 1040.49 370.154C1040.18 369.546 1039.76 369.074 1039.22 368.738C1038.67 368.402 1038.06 368.234 1037.37 368.234C1036.68 368.234 1036.06 368.41 1035.5 368.762C1034.95 369.098 1034.53 369.57 1034.22 370.178C1033.92 370.77 1033.77 371.442 1033.77 372.194C1033.77 372.946 1033.92 373.626 1034.22 374.234C1034.53 374.826 1034.95 375.298 1035.5 375.65C1036.06 375.986 1036.68 376.154 1037.37 376.154ZM1047.27 378.53V364.73C1047.27 363.978 1047.44 363.306 1047.77 362.714C1048.11 362.106 1048.57 361.634 1049.16 361.298C1049.76 360.946 1050.44 360.77 1051.2 360.77C1051.75 360.77 1052.25 360.866 1052.72 361.058C1053.2 361.25 1053.59 361.506 1053.89 361.826L1052.98 364.01C1052.77 363.85 1052.55 363.722 1052.31 363.626C1052.08 363.514 1051.87 363.458 1051.66 363.458C1051.34 363.458 1051.07 363.514 1050.84 363.626C1050.64 363.722 1050.48 363.874 1050.36 364.082C1050.27 364.29 1050.22 364.546 1050.22 364.85V378.53H1048.73C1048.46 378.53 1048.2 378.53 1047.94 378.53C1047.7 378.53 1047.48 378.53 1047.27 378.53ZM1045.3 368.738V366.146H1053.08V368.738H1045.3ZM1056.72 378.53V364.73C1056.72 363.978 1056.89 363.306 1057.23 362.714C1057.56 362.106 1058.03 361.634 1058.62 361.298C1059.21 360.946 1059.89 360.77 1060.66 360.77C1061.2 360.77 1061.71 360.866 1062.17 361.058C1062.65 361.25 1063.04 361.506 1063.35 361.826L1062.44 364.01C1062.23 363.85 1062 363.722 1061.76 363.626C1061.54 363.514 1061.32 363.458 1061.12 363.458C1060.8 363.458 1060.52 363.514 1060.3 363.626C1060.09 363.722 1059.93 363.874 1059.82 364.082C1059.72 364.29 1059.68 364.546 1059.68 364.85V378.53H1058.19C1057.92 378.53 1057.65 378.53 1057.4 378.53C1057.16 378.53 1056.93 378.53 1056.72 378.53ZM1054.76 368.738V366.146H1062.53V368.738H1054.76ZM1073.96 384.05L1076.62 377.858L1076.65 379.85L1070.41 365.882H1073.79L1077.29 374.21C1077.41 374.418 1077.52 374.698 1077.63 375.05C1077.74 375.386 1077.84 375.714 1077.92 376.034L1077.32 376.25C1077.43 375.946 1077.54 375.618 1077.65 375.266C1077.78 374.914 1077.91 374.562 1078.04 374.21L1081.01 365.882H1084.42L1079.17 378.53L1077.03 384.05H1073.96ZM1091.79 378.77C1090.53 378.77 1089.4 378.49 1088.41 377.93C1087.41 377.354 1086.63 376.57 1086.05 375.578C1085.49 374.586 1085.21 373.458 1085.21 372.194C1085.21 370.93 1085.49 369.802 1086.05 368.81C1086.63 367.818 1087.41 367.042 1088.41 366.482C1089.4 365.906 1090.53 365.618 1091.79 365.618C1093.04 365.618 1094.16 365.906 1095.15 366.482C1096.14 367.042 1096.92 367.818 1097.48 368.81C1098.05 369.802 1098.34 370.93 1098.34 372.194C1098.34 373.458 1098.05 374.586 1097.48 375.578C1096.92 376.57 1096.14 377.354 1095.15 377.93C1094.16 378.49 1093.04 378.77 1091.79 378.77ZM1091.79 376.154C1092.48 376.154 1093.09 375.986 1093.64 375.65C1094.18 375.298 1094.61 374.826 1094.91 374.234C1095.23 373.626 1095.38 372.946 1095.37 372.194C1095.38 371.426 1095.23 370.746 1094.91 370.154C1094.61 369.546 1094.18 369.074 1093.64 368.738C1093.09 368.402 1092.48 368.234 1091.79 368.234C1091.1 368.234 1090.48 368.41 1089.92 368.762C1089.37 369.098 1088.95 369.57 1088.65 370.178C1088.34 370.77 1088.19 371.442 1088.19 372.194C1088.19 372.946 1088.34 373.626 1088.65 374.234C1088.95 374.826 1089.37 375.298 1089.92 375.65C1090.48 375.986 1091.1 376.154 1091.79 376.154ZM1105.37 378.77C1104.46 378.77 1103.67 378.562 1103 378.146C1102.34 377.73 1101.83 377.146 1101.46 376.394C1101.11 375.642 1100.93 374.738 1100.93 373.682V365.882H1103.86V373.058C1103.86 374.05 1104.09 374.834 1104.56 375.41C1105.04 375.986 1105.7 376.274 1106.55 376.274C1106.97 376.274 1107.34 376.21 1107.68 376.082C1108.03 375.938 1108.33 375.746 1108.59 375.506C1108.85 375.25 1109.05 374.946 1109.19 374.594C1109.33 374.242 1109.41 373.866 1109.41 373.466V365.882H1112.33V378.53H1109.48L1109.43 375.89L1109.96 375.602C1109.77 376.194 1109.44 376.73 1108.97 377.21C1108.53 377.69 1107.99 378.074 1107.37 378.362C1106.74 378.634 1106.08 378.77 1105.37 378.77ZM1115.82 378.53V365.882H1118.7L1118.75 369.914L1118.36 369.002C1118.54 368.362 1118.84 367.786 1119.27 367.274C1119.71 366.762 1120.2 366.362 1120.76 366.074C1121.34 365.77 1121.93 365.618 1122.54 365.618C1122.81 365.618 1123.07 365.642 1123.31 365.69C1123.56 365.738 1123.77 365.794 1123.93 365.858L1123.16 369.074C1122.97 368.978 1122.75 368.906 1122.49 368.858C1122.25 368.794 1122 368.762 1121.75 368.762C1121.33 368.762 1120.94 368.842 1120.57 369.002C1120.22 369.146 1119.91 369.354 1119.63 369.626C1119.38 369.898 1119.17 370.218 1119.01 370.586C1118.85 370.938 1118.77 371.33 1118.77 371.762V378.53H1115.82ZM1134.13 378.53V364.73C1134.13 363.978 1134.3 363.306 1134.63 362.714C1134.97 362.106 1135.43 361.634 1136.02 361.298C1136.62 360.946 1137.3 360.77 1138.06 360.77C1138.61 360.77 1139.11 360.866 1139.58 361.058C1140.06 361.25 1140.45 361.506 1140.75 361.826L1139.84 364.01C1139.63 363.85 1139.41 363.722 1139.17 363.626C1138.94 363.514 1138.73 363.458 1138.52 363.458C1138.2 363.458 1137.93 363.514 1137.7 363.626C1137.5 363.722 1137.34 363.874 1137.22 364.082C1137.13 364.29 1137.08 364.546 1137.08 364.85V378.53H1135.59C1135.32 378.53 1135.06 378.53 1134.8 378.53C1134.56 378.53 1134.34 378.53 1134.13 378.53ZM1132.16 368.738V366.146H1139.94V368.738H1132.16ZM1142.74 378.53V365.882H1145.67V378.53H1142.74ZM1144.18 363.194C1143.59 363.194 1143.13 363.05 1142.79 362.762C1142.47 362.458 1142.31 362.034 1142.31 361.49C1142.31 360.978 1142.48 360.57 1142.82 360.266C1143.15 359.946 1143.61 359.786 1144.18 359.786C1144.78 359.786 1145.23 359.938 1145.55 360.242C1145.89 360.53 1146.06 360.946 1146.06 361.49C1146.06 361.986 1145.89 362.394 1145.55 362.714C1145.22 363.034 1144.76 363.194 1144.18 363.194ZM1149.4 378.53V365.882H1152.28L1152.33 369.914L1151.95 369.002C1152.12 368.362 1152.43 367.786 1152.86 367.274C1153.29 366.762 1153.79 366.362 1154.35 366.074C1154.92 365.77 1155.52 365.618 1156.12 365.618C1156.4 365.618 1156.65 365.642 1156.89 365.69C1157.15 365.738 1157.36 365.794 1157.52 365.858L1156.75 369.074C1156.56 368.978 1156.33 368.906 1156.08 368.858C1155.84 368.794 1155.59 368.762 1155.33 368.762C1154.92 368.762 1154.52 368.842 1154.16 369.002C1153.8 369.146 1153.49 369.354 1153.22 369.626C1152.96 369.898 1152.76 370.218 1152.6 370.586C1152.44 370.938 1152.36 371.33 1152.36 371.762V378.53H1149.4ZM1163.73 378.77C1162.63 378.77 1161.63 378.586 1160.73 378.218C1159.85 377.834 1159.13 377.29 1158.57 376.586L1160.47 374.954C1160.95 375.482 1161.48 375.874 1162.07 376.13C1162.67 376.37 1163.29 376.49 1163.95 376.49C1164.22 376.49 1164.46 376.458 1164.67 376.394C1164.89 376.33 1165.08 376.234 1165.24 376.106C1165.4 375.978 1165.52 375.826 1165.6 375.65C1165.7 375.474 1165.75 375.282 1165.75 375.074C1165.75 374.69 1165.6 374.386 1165.31 374.162C1165.15 374.066 1164.91 373.954 1164.57 373.826C1164.23 373.682 1163.79 373.546 1163.25 373.418C1162.39 373.194 1161.66 372.938 1161.07 372.65C1160.49 372.346 1160.04 372.01 1159.72 371.642C1159.45 371.322 1159.25 370.978 1159.12 370.61C1158.99 370.226 1158.93 369.802 1158.93 369.338C1158.93 368.618 1159.14 367.978 1159.55 367.418C1159.99 366.858 1160.55 366.418 1161.26 366.098C1161.96 365.778 1162.75 365.618 1163.61 365.618C1164.25 365.618 1164.87 365.698 1165.46 365.858C1166.07 366.018 1166.63 366.25 1167.14 366.554C1167.65 366.842 1168.09 367.194 1168.46 367.61L1166.83 369.41C1166.54 369.122 1166.21 368.866 1165.84 368.642C1165.49 368.402 1165.13 368.218 1164.76 368.09C1164.39 367.962 1164.05 367.898 1163.73 367.898C1163.43 367.898 1163.15 367.93 1162.91 367.994C1162.67 368.042 1162.47 368.122 1162.31 368.234C1162.15 368.346 1162.03 368.49 1161.93 368.666C1161.85 368.826 1161.81 369.01 1161.81 369.218C1161.83 369.426 1161.87 369.618 1161.95 369.794C1162.05 369.954 1162.18 370.09 1162.34 370.202C1162.5 370.314 1162.75 370.442 1163.11 370.586C1163.46 370.73 1163.91 370.866 1164.47 370.994C1165.26 371.202 1165.91 371.434 1166.44 371.69C1166.97 371.946 1167.39 372.242 1167.69 372.578C1167.99 372.866 1168.21 373.202 1168.34 373.586C1168.47 373.97 1168.53 374.402 1168.53 374.882C1168.53 375.634 1168.31 376.306 1167.88 376.898C1167.47 377.474 1166.9 377.93 1166.18 378.266C1165.46 378.602 1164.64 378.77 1163.73 378.77ZM1172.52 378.53V362.666H1175.45V378.53H1172.52ZM1170.03 368.618V365.882H1178.21V368.618H1170.03ZM1193.25 378.77C1191.99 378.77 1190.86 378.49 1189.87 377.93C1188.87 377.354 1188.09 376.57 1187.51 375.578C1186.95 374.586 1186.67 373.458 1186.67 372.194C1186.67 370.93 1186.95 369.802 1187.51 368.81C1188.09 367.818 1188.87 367.042 1189.87 366.482C1190.86 365.906 1191.99 365.618 1193.25 365.618C1194.5 365.618 1195.62 365.906 1196.61 366.482C1197.6 367.042 1198.38 367.818 1198.94 368.81C1199.51 369.802 1199.8 370.93 1199.8 372.194C1199.8 373.458 1199.51 374.586 1198.94 375.578C1198.38 376.57 1197.6 377.354 1196.61 377.93C1195.62 378.49 1194.5 378.77 1193.25 378.77ZM1193.25 376.154C1193.94 376.154 1194.55 375.986 1195.1 375.65C1195.64 375.298 1196.07 374.826 1196.37 374.234C1196.69 373.626 1196.84 372.946 1196.83 372.194C1196.84 371.426 1196.69 370.746 1196.37 370.154C1196.07 369.546 1195.64 369.074 1195.1 368.738C1194.55 368.402 1193.94 368.234 1193.25 368.234C1192.56 368.234 1191.94 368.41 1191.38 368.762C1190.83 369.098 1190.41 369.57 1190.11 370.178C1189.8 370.77 1189.65 371.442 1189.65 372.194C1189.65 372.946 1189.8 373.626 1190.11 374.234C1190.41 374.826 1190.83 375.298 1191.38 375.65C1191.94 375.986 1192.56 376.154 1193.25 376.154ZM1202.44 378.53V365.882H1205.32L1205.37 369.914L1204.99 369.002C1205.16 368.362 1205.47 367.786 1205.9 367.274C1206.33 366.762 1206.83 366.362 1207.39 366.074C1207.96 365.77 1208.56 365.618 1209.16 365.618C1209.44 365.618 1209.69 365.642 1209.93 365.69C1210.19 365.738 1210.4 365.794 1210.56 365.858L1209.79 369.074C1209.6 368.978 1209.37 368.906 1209.12 368.858C1208.88 368.794 1208.63 368.762 1208.37 368.762C1207.96 368.762 1207.56 368.842 1207.2 369.002C1206.84 369.146 1206.53 369.354 1206.26 369.626C1206 369.898 1205.8 370.218 1205.64 370.586C1205.48 370.938 1205.4 371.33 1205.4 371.762V378.53H1202.44ZM1217.12 378.77C1215.98 378.77 1214.97 378.49 1214.07 377.93C1213.19 377.354 1212.49 376.578 1211.96 375.602C1211.45 374.61 1211.19 373.474 1211.19 372.194C1211.19 370.93 1211.45 369.802 1211.96 368.81C1212.47 367.818 1213.17 367.042 1214.05 366.482C1214.94 365.906 1215.95 365.618 1217.07 365.618C1217.68 365.618 1218.26 365.714 1218.82 365.906C1219.4 366.098 1219.91 366.362 1220.36 366.698C1220.82 367.018 1221.18 367.378 1221.44 367.778C1221.71 368.178 1221.85 368.594 1221.87 369.026L1221.08 369.122V360.77H1224.03V378.53H1221.17L1221.1 375.578L1221.68 375.626C1221.66 376.01 1221.53 376.386 1221.27 376.754C1221.01 377.122 1220.67 377.458 1220.24 377.762C1219.82 378.066 1219.34 378.314 1218.8 378.506C1218.25 378.682 1217.69 378.77 1217.12 378.77ZM1217.67 376.274C1218.36 376.274 1218.97 376.106 1219.49 375.77C1220.02 375.418 1220.43 374.938 1220.72 374.33C1221.02 373.706 1221.17 372.994 1221.17 372.194C1221.17 371.394 1221.02 370.69 1220.72 370.082C1220.43 369.474 1220.02 368.994 1219.49 368.642C1218.97 368.29 1218.36 368.114 1217.67 368.114C1216.97 368.114 1216.35 368.29 1215.82 368.642C1215.31 368.994 1214.9 369.474 1214.6 370.082C1214.29 370.69 1214.14 371.394 1214.14 372.194C1214.14 372.994 1214.29 373.706 1214.6 374.33C1214.9 374.938 1215.31 375.418 1215.82 375.77C1216.35 376.106 1216.97 376.274 1217.67 376.274ZM1233.31 378.77C1231.98 378.77 1230.81 378.498 1229.78 377.954C1228.77 377.394 1227.98 376.634 1227.41 375.674C1226.85 374.698 1226.57 373.578 1226.57 372.314C1226.57 371.322 1226.73 370.418 1227.05 369.602C1227.37 368.786 1227.81 368.082 1228.39 367.49C1228.97 366.882 1229.65 366.418 1230.43 366.098C1231.23 365.762 1232.09 365.594 1233.02 365.594C1233.87 365.594 1234.65 365.754 1235.35 366.074C1236.07 366.394 1236.69 366.834 1237.22 367.394C1237.75 367.938 1238.15 368.594 1238.42 369.362C1238.71 370.114 1238.85 370.938 1238.83 371.834L1238.81 372.89H1228.58L1228.01 370.85H1236.33L1235.97 371.258V370.706C1235.93 370.226 1235.77 369.802 1235.49 369.434C1235.22 369.05 1234.87 368.754 1234.44 368.546C1234.02 368.322 1233.56 368.21 1233.05 368.21C1232.26 368.21 1231.6 368.362 1231.05 368.666C1230.51 368.954 1230.09 369.386 1229.81 369.962C1229.53 370.538 1229.4 371.25 1229.4 372.098C1229.4 372.914 1229.57 373.626 1229.9 374.234C1230.25 374.842 1230.75 375.314 1231.39 375.65C1232.03 375.986 1232.77 376.154 1233.62 376.154C1234.21 376.154 1234.76 376.058 1235.25 375.866C1235.77 375.674 1236.31 375.33 1236.89 374.834L1238.33 376.85C1237.89 377.25 1237.4 377.594 1236.84 377.882C1236.29 378.154 1235.72 378.37 1235.11 378.53C1234.5 378.69 1233.9 378.77 1233.31 378.77ZM1241.44 378.53V365.882H1244.32L1244.37 369.914L1243.99 369.002C1244.16 368.362 1244.47 367.786 1244.9 367.274C1245.33 366.762 1245.83 366.362 1246.39 366.074C1246.96 365.77 1247.56 365.618 1248.16 365.618C1248.44 365.618 1248.69 365.642 1248.93 365.69C1249.19 365.738 1249.4 365.794 1249.56 365.858L1248.79 369.074C1248.6 368.978 1248.37 368.906 1248.12 368.858C1247.88 368.794 1247.63 368.762 1247.37 368.762C1246.96 368.762 1246.56 368.842 1246.2 369.002C1245.84 369.146 1245.53 369.354 1245.26 369.626C1245 369.898 1244.8 370.218 1244.64 370.586C1244.48 370.938 1244.4 371.33 1244.4 371.762V378.53H1241.44ZM1252.03 372.626C1251.91 371.634 1251.8 370.602 1251.69 369.53C1251.59 368.458 1251.51 367.394 1251.45 366.338C1251.4 365.282 1251.38 364.282 1251.38 363.338V361.634H1254.45V363.338C1254.45 364.33 1254.42 365.37 1254.35 366.458C1254.31 367.53 1254.23 368.594 1254.11 369.65C1254.02 370.706 1253.91 371.698 1253.8 372.626H1252.03ZM1252.87 378.794C1252.29 378.794 1251.84 378.626 1251.52 378.29C1251.22 377.954 1251.07 377.482 1251.07 376.874C1251.07 376.314 1251.23 375.858 1251.55 375.506C1251.88 375.138 1252.32 374.954 1252.87 374.954C1253.43 374.954 1253.87 375.122 1254.19 375.458C1254.51 375.778 1254.67 376.25 1254.67 376.874C1254.67 377.434 1254.5 377.898 1254.16 378.266C1253.83 378.618 1253.39 378.794 1252.87 378.794Z" fill="black"/>
<path d="M1246.68 319.024C1246.83 312.621 1249.31 297.851 1258.08 290" stroke="#FF989E" stroke-width="2" stroke-linecap="round"/>
<path d="M1258.11 324.17C1259.44 319.205 1264.18 308.925 1272.49 307.523M1266.9 333.808C1269.29 330.887 1276.01 325.922 1283.67 329.427" stroke="#FF989E" stroke-width="2" stroke-linecap="round"/>
<path d="M656.236 321.187C653.229 315.696 644.424 304.194 633.258 302.116" stroke="#FF989E" stroke-width="2" stroke-linecap="round"/>
<path d="M648.612 331.849C645.22 328.251 636.47 321.876 628.613 325.155M645.306 344.988C641.908 343.745 633.837 343.059 628.744 350.259" stroke="#FF989E" stroke-width="2" stroke-linecap="round"/>
<path d="M1207.24 422.441C1206.91 429.692 1208 446.063 1215.03 453.54M1217.33 420.247C1217.83 424.244 1220.27 433.929 1226.01 440.692M1227 418.94C1228.32 421.903 1231.92 428.365 1235.76 430.506" stroke="#FF989E" stroke-width="2" stroke-linecap="round"/>
<path d="M706.11 412.448C700.428 416.173 688.621 426.261 686.851 436.818M713.375 420.429C710.623 423.107 704.633 430.71 702.692 439.701M719.739 428.528C718.223 431.374 715.319 438.241 715.832 442.939" stroke="#FF989E" stroke-width="2" stroke-linecap="round"/>
</g>
<defs>
<filter id="filter0_b_47_12894" x="-97" y="-97" width="2114" height="694" filterUnits="userSpaceOnUse" color-interpolation-filters="sRGB">
<feFlood flood-opacity="0" result="BackgroundImageFix"/>
<feGaussianBlur in="BackgroundImageFix" stdDeviation="48.5"/>
<feComposite in2="SourceAlpha" operator="in" result="effect1_backgroundBlur_47_12894"/>
<feBlend mode="normal" in="SourceGraphic" in2="effect1_backgroundBlur_47_12894" result="shape"/>
</filter>
<clipPath id="clip0_47_12894">
<rect width="1920" height="500" fill="white"/>
</clipPath>
</defs>
</svg>
