<svg width="33" height="33" viewBox="0 0 33 33" fill="none" xmlns="http://www.w3.org/2000/svg">
<path d="M11.3025 15.5101C11.109 15.7033 11.0002 15.9654 11 16.2388L11 16.7613C11.0032 17.0342 11.1115 17.2952 11.3025 17.4901L18.37 24.5438C18.4991 24.674 18.6748 24.7472 18.8581 24.7472C19.0414 24.7472 19.2172 24.674 19.3463 24.5438L20.3225 23.5676C20.4518 23.4409 20.5247 23.2674 20.5247 23.0863C20.5247 22.9053 20.4518 22.7318 20.3225 22.6051L14.2037 16.5001L20.3225 10.3951C20.4527 10.266 20.5259 10.0903 20.5259 9.90696C20.5259 9.72364 20.4527 9.54792 20.3225 9.41883L19.3462 8.45633C19.2172 8.32618 19.0414 8.25297 18.8581 8.25297C18.6748 8.25297 18.4991 8.32618 18.37 8.45633L11.3025 15.5101Z" fill="#767676"/>
</svg>
