<svg width="334" height="95" viewBox="0 0 334 95" fill="none" xmlns="http://www.w3.org/2000/svg">
<circle cx="47.5" cy="47.5" r="47.5" fill="black"/>
<path d="M48.2155 59.89C37.7313 59.89 29.2322 51.3909 29.2322 40.9067C29.2322 30.4225 37.7313 21.9233 48.2155 21.9233C58.6997 21.9233 67.1989 30.4225 67.1989 40.9067C67.1989 51.3909 58.6997 59.89 48.2155 59.89ZM48.2155 31.7852C43.1778 31.7852 39.094 35.869 39.094 40.9067C39.094 45.9443 43.1778 50.0282 48.2155 50.0282C53.2532 50.0282 57.337 45.9443 57.337 40.9067C57.337 35.869 53.2532 31.7852 48.2155 31.7852Z" fill="white"/>
<path d="M61.1595 46.3769C63.668 47.4371 66.6326 46.254 67.0129 43.5574C67.2328 41.9979 67.2587 40.4107 67.0852 38.8324C66.7311 35.6114 65.5584 32.5346 63.6787 29.895C61.799 27.2555 59.2749 25.141 56.3468 23.753C53.4187 22.365 50.1839 21.7496 46.9507 21.9655C43.7174 22.1814 40.5933 23.2214 37.8757 24.9864C35.1581 26.7514 32.9375 29.1827 31.4255 32.0488C29.9134 34.9148 29.1602 38.1202 29.2376 41.3598C29.2755 42.9471 29.5122 44.5167 29.9375 46.0332C30.6729 48.6553 33.7685 49.4336 36.1138 48.0494L36.3593 47.9045C38.569 46.6003 39.1579 43.6895 39.0966 41.1244V41.1244C39.0595 39.5678 39.4214 38.0276 40.1479 36.6505C40.8744 35.2733 41.9414 34.1051 43.2472 33.257C44.553 32.4089 46.0542 31.9092 47.6078 31.8055C49.1613 31.7017 50.7156 31.9974 52.1226 32.6643C53.5296 33.3313 54.7424 34.3473 55.6456 35.6156C56.5488 36.8839 57.1123 38.3623 57.2824 39.91V39.91C57.5627 42.4605 58.5334 45.2671 60.8969 46.266L61.1595 46.3769Z" fill="white"/>
<path d="M29.2313 41.2131C29.2313 36.113 36.0117 34.3456 38.5013 38.7968V38.7968C38.9143 39.5352 39.1312 40.3671 39.1312 41.2131V70.0724C39.1312 72.8061 36.915 75.0223 34.1812 75.0223V75.0223C31.4475 75.0223 29.2313 72.8061 29.2313 70.0724V41.2131Z" fill="white"/>
<path d="M144.431 63.158H168.925V73H131.703V24.16H144.431V63.158ZM238.396 73H225.298L221.894 61.974H205.17L201.692 73H188.89L206.058 24.16H221.302L238.396 73ZM207.538 53.316H219.526L213.532 33.558L207.538 53.316ZM263.588 73V24.16H287.342C293.36 24.2093 297.8 25.3687 300.662 27.638C303.523 29.858 304.954 33.0893 304.954 37.332C304.954 40.0947 304.14 42.4873 302.512 44.51C300.884 46.4833 298.392 47.7413 295.038 48.284V48.358C298.787 48.8513 301.574 50.1587 303.4 52.28C305.274 54.352 306.212 56.868 306.212 59.828C306.212 64.0213 304.732 67.2773 301.772 69.596C298.812 71.8653 294.372 73 288.452 73H263.588ZM275.872 64.046H286.306C288.624 64.046 290.351 63.5773 291.486 62.64C292.62 61.7027 293.188 60.346 293.188 58.57C293.188 56.8433 292.62 55.536 291.486 54.648C290.351 53.7107 288.624 53.242 286.306 53.242H275.872V64.046ZM275.872 44.14H285.122C289.66 44.14 291.93 42.364 291.93 38.812C291.93 35.26 289.66 33.484 285.122 33.484H275.872V44.14Z" fill="black"/>
</svg>
