<svg width="22" height="22" viewBox="0 0 22 22" fill="none" xmlns="http://www.w3.org/2000/svg">
<path d="M5.5 1.83325L2.75 5.49992V18.3333C2.75 18.8195 2.94315 19.2858 3.28697 19.6296C3.63079 19.9734 4.0971 20.1666 4.58333 20.1666H17.4167C17.9029 20.1666 18.3692 19.9734 18.713 19.6296C19.0568 19.2858 19.25 18.8195 19.25 18.3333V5.49992L16.5 1.83325H5.5Z" stroke="black" stroke-width="2" stroke-linecap="round" stroke-linejoin="round"/>
<path d="M2.75 5.5H19.25" stroke="black" stroke-width="2" stroke-linecap="round" stroke-linejoin="round"/>
<path d="M14.6663 9.16675C14.6663 10.1392 14.28 11.0718 13.5924 11.7595C12.9048 12.4471 11.9721 12.8334 10.9997 12.8334C10.0272 12.8334 9.09458 12.4471 8.40695 11.7595C7.71932 11.0718 7.33301 10.1392 7.33301 9.16675" stroke="black" stroke-width="2" stroke-linecap="round" stroke-linejoin="round"/>
</svg>
