<svg width="22" height="22" viewBox="0 0 22 22" fill="none" xmlns="http://www.w3.org/2000/svg">
<path d="M8.861 19.5555C9.36726 19.5555 9.77767 19.1451 9.77767 18.6388C9.77767 18.1326 9.36726 17.7222 8.861 17.7222C8.35474 17.7222 7.94434 18.1326 7.94434 18.6388C7.94434 19.1451 8.35474 19.5555 8.861 19.5555Z" fill="black" stroke="black" stroke-width="2" stroke-linecap="round" stroke-linejoin="round"/>
<path d="M17.4167 19.5555C17.9229 19.5555 18.3333 19.1451 18.3333 18.6388C18.3333 18.1326 17.9229 17.7222 17.4167 17.7222C16.9104 17.7222 16.5 18.1326 16.5 18.6388C16.5 19.1451 16.9104 19.5555 17.4167 19.5555Z" fill="black" stroke="black" stroke-width="2" stroke-linecap="round" stroke-linejoin="round"/>
<path d="M1.83301 1.83325H5.16634L7.39967 12.7434C7.47588 13.1185 7.6846 13.4555 7.9893 13.6953C8.29399 13.9351 8.67526 14.0625 9.06634 14.0552H17.1663C17.5574 14.0625 17.9387 13.9351 18.2434 13.6953C18.5481 13.4555 18.7568 13.1185 18.833 12.7434L20.1663 5.90723H5.99967" stroke="black" stroke-width="2" stroke-linecap="round" stroke-linejoin="round"/>
</svg>
