<svg width="134" height="43" viewBox="0 0 134 43" fill="none" xmlns="http://www.w3.org/2000/svg">
<circle cx="21.5" cy="21.5" r="21.5" fill="black"/>
<path d="M21.8236 27.108C17.0781 27.108 13.2311 23.261 13.2311 18.5156C13.2311 13.7701 17.0781 9.9231 21.8236 9.9231C26.569 9.9231 30.416 13.7701 30.416 18.5156C30.416 23.261 26.569 27.108 21.8236 27.108ZM21.8236 14.3869C19.5434 14.3869 17.6949 16.2354 17.6949 18.5156C17.6949 20.7958 19.5434 22.6442 21.8236 22.6442C24.1038 22.6442 25.9522 20.7958 25.9522 18.5156C25.9522 16.2354 24.1038 14.3869 21.8236 14.3869Z" fill="white"/>
<path d="M27.6824 20.9916C28.8178 21.4714 30.1597 20.9359 30.3318 19.7154C30.4314 19.0095 30.4431 18.2911 30.3646 17.5767C30.2043 16.1187 29.6735 14.7261 28.8227 13.5313C27.9719 12.3366 26.8294 11.3795 25.504 10.7512C24.1787 10.123 22.7145 9.84446 21.2511 9.94219C19.7876 10.0399 18.3735 10.5106 17.1434 11.3095C15.9134 12.1084 14.9083 13.2089 14.2239 14.5062C13.5395 15.8035 13.1985 17.2543 13.2335 18.7206C13.2507 19.4391 13.3578 20.1496 13.5503 20.836C13.8832 22.0228 15.2844 22.3751 16.3459 21.7486L16.4571 21.683C17.4572 21.0927 17.7238 19.7751 17.6961 18.6141V18.6141C17.6792 17.9095 17.843 17.2124 18.1719 16.5891C18.5008 15.9657 18.9837 15.4369 19.5748 15.0531C20.1658 14.6692 20.8453 14.443 21.5485 14.3961C22.2517 14.3491 22.9552 14.4829 23.592 14.7848C24.2289 15.0867 24.7778 15.5466 25.1866 16.1206C25.5955 16.6947 25.8505 17.3639 25.9275 18.0644V18.0644C26.0544 19.2188 26.4938 20.4892 27.5635 20.9413L27.6824 20.9916Z" fill="white"/>
<path d="M13.2314 18.6543C13.2314 16.3458 16.3005 15.5459 17.4273 17.5606V17.5606C17.6143 17.8948 17.7124 18.2714 17.7124 18.6543V31.7169C17.7124 32.9543 16.7093 33.9574 15.4719 33.9574V33.9574C14.2345 33.9574 13.2314 32.9543 13.2314 31.7169V18.6543Z" fill="white"/>
<path d="M64.7953 28.01H74.7253V32H59.6353V12.2H64.7953V28.01ZM102.889 32H97.5792L96.1992 27.53H89.4192L88.0092 32H82.8192L89.7792 12.2H95.9592L102.889 32ZM90.3792 24.02H95.2392L92.8092 16.01L90.3792 24.02ZM113.102 32V12.2H122.732C125.172 12.22 126.972 12.69 128.132 13.61C129.292 14.51 129.872 15.82 129.872 17.54C129.872 18.66 129.542 19.63 128.882 20.45C128.222 21.25 127.212 21.76 125.852 21.98V22.01C127.372 22.21 128.502 22.74 129.242 23.6C130.002 24.44 130.382 25.46 130.382 26.66C130.382 28.36 129.782 29.68 128.582 30.62C127.382 31.54 125.582 32 123.182 32H113.102ZM118.082 28.37H122.312C123.252 28.37 123.952 28.18 124.412 27.8C124.872 27.42 125.102 26.87 125.102 26.15C125.102 25.45 124.872 24.92 124.412 24.56C123.952 24.18 123.252 23.99 122.312 23.99H118.082V28.37ZM118.082 20.3H121.832C123.672 20.3 124.592 19.58 124.592 18.14C124.592 16.7 123.672 15.98 121.832 15.98H118.082V20.3Z" fill="black"/>
</svg>
