<svg width="193" height="57" viewBox="0 0 193 57" fill="none" xmlns="http://www.w3.org/2000/svg">
<circle cx="28.5" cy="28.5" r="28.5" fill="black"/>
<path d="M28.9293 35.9338C22.6388 35.9338 17.5393 30.8343 17.5393 24.5438C17.5393 18.2533 22.6388 13.1538 28.9293 13.1538C35.2199 13.1538 40.3193 18.2533 40.3193 24.5438C40.3193 30.8343 35.2199 35.9338 28.9293 35.9338ZM28.9293 19.0709C25.9067 19.0709 23.4564 21.5212 23.4564 24.5438C23.4564 27.5664 25.9067 30.0167 28.9293 30.0167C31.9519 30.0167 34.4022 27.5664 34.4022 24.5438C34.4022 21.5212 31.9519 19.0709 28.9293 19.0709Z" fill="white"/>
<path d="M36.6957 27.826C38.2008 28.462 39.9796 27.7522 40.2077 26.1343C40.3397 25.1985 40.3552 24.2462 40.2511 23.2993C40.0387 21.3666 39.3351 19.5206 38.2073 17.9368C37.0794 16.3531 35.565 15.0844 33.8081 14.2516C32.0512 13.4188 30.1104 13.0496 28.1704 13.1791C26.2305 13.3087 24.356 13.9326 22.7254 14.9917C21.0949 16.0507 19.7626 17.5094 18.8553 19.2291C17.9481 20.9487 17.4962 22.8719 17.5426 24.8157C17.5653 25.7681 17.7073 26.7098 17.9625 27.6197C18.4038 29.193 20.2611 29.66 21.6683 28.8294L21.8156 28.7425C23.1414 27.96 23.4947 26.2135 23.458 24.6744V24.6744C23.4357 23.7405 23.6528 22.8164 24.0888 21.9901C24.5247 21.1638 25.1649 20.4629 25.9484 19.954C26.7318 19.4451 27.6325 19.1453 28.5647 19.0831C29.4968 19.0208 30.4294 19.1982 31.2736 19.5984C32.1178 19.9986 32.8455 20.6082 33.3874 21.3692C33.9293 22.1301 34.2674 23.0172 34.3695 23.9458V23.9458C34.5377 25.4761 35.1201 27.1601 36.5381 27.7594L36.6957 27.826Z" fill="white"/>
<path d="M17.5391 24.7277C17.5391 21.6677 21.6073 20.6072 23.1011 23.2779V23.2779C23.3489 23.721 23.479 24.2201 23.479 24.7277V42.0433C23.479 43.6835 22.1493 45.0132 20.509 45.0132V45.0132C18.8688 45.0132 17.5391 43.6835 17.5391 42.0433V24.7277Z" fill="white"/>
<path d="M84.5708 37.882H99.7968V44H76.6588V13.64H84.5708V37.882ZM142.981 44H134.839L132.723 37.146H122.327L120.165 44H112.207L122.879 13.64H132.355L142.981 44ZM123.799 31.764H131.251L127.525 19.482L123.799 31.764ZM158.641 44V13.64H173.407C177.149 13.6707 179.909 14.3913 181.687 15.802C183.466 17.182 184.355 19.1907 184.355 21.828C184.355 23.5453 183.849 25.0327 182.837 26.29C181.825 27.5167 180.277 28.2987 178.191 28.636V28.682C180.522 28.9887 182.255 29.8013 183.389 31.12C184.555 32.408 185.137 33.972 185.137 35.812C185.137 38.4187 184.217 40.4427 182.377 41.884C180.537 43.2947 177.777 44 174.097 44H158.641ZM166.277 38.434H172.763C174.205 38.434 175.278 38.1427 175.983 37.56C176.689 36.9773 177.041 36.134 177.041 35.03C177.041 33.9567 176.689 33.144 175.983 32.592C175.278 32.0093 174.205 31.718 172.763 31.718H166.277V38.434ZM166.277 26.06H172.027C174.849 26.06 176.259 24.956 176.259 22.748C176.259 20.54 174.849 19.436 172.027 19.436H166.277V26.06Z" fill="black"/>
</svg>
