<svg width="33" height="33" viewBox="0 0 33 33" fill="none" xmlns="http://www.w3.org/2000/svg">
<path d="M21.6975 17.4899C21.891 17.2967 21.9998 17.0346 22 16.7612V16.2387C21.9968 15.9658 21.8885 15.7048 21.6975 15.5099L14.63 8.45617C14.5009 8.32602 14.3252 8.25281 14.1419 8.25281C13.9586 8.25281 13.7828 8.32602 13.6537 8.45617L12.6775 9.43242C12.5482 9.55914 12.4753 9.7326 12.4753 9.91367C12.4753 10.0947 12.5482 10.2682 12.6775 10.3949L18.7963 16.4999L12.6775 22.6049C12.5473 22.734 12.4741 22.9097 12.4741 23.093C12.4741 23.2764 12.5473 23.4521 12.6775 23.5812L13.6537 24.5437C13.7828 24.6738 13.9586 24.747 14.1419 24.747C14.3252 24.747 14.5009 24.6738 14.63 24.5437L21.6975 17.4899Z" fill="#C4C4C4"/>
</svg>
