<svg width="168" height="54" viewBox="0 0 168 54" fill="none" xmlns="http://www.w3.org/2000/svg">
<rect width="168" height="54" rx="5" fill="black"/>
<path d="M75.912 23.146H73.608V19.114H71.754V28.888H73.608V24.676H75.912V23.146ZM69.396 28.024L70.368 26.566C67.956 25.738 66.57 23.812 66.57 21.706V19.96H64.698V21.562C64.698 23.92 63.312 26.134 60.756 26.998L61.746 28.474C63.618 27.772 64.95 26.422 65.67 24.622C66.372 26.152 67.65 27.394 69.396 28.024ZM68.37 29.284C65.022 29.284 62.952 30.4 62.952 32.326C62.952 34.252 65.022 35.386 68.37 35.386C71.754 35.386 73.788 34.252 73.788 32.326C73.788 30.4 71.754 29.284 68.37 29.284ZM68.37 33.928C66.048 33.928 64.788 33.406 64.788 32.326C64.788 31.318 66.048 30.742 68.37 30.742C70.692 30.742 71.952 31.318 71.952 32.326C71.952 33.406 70.692 33.928 68.37 33.928ZM81.0766 21.094V24.082H78.8626V25.576H90.7246V24.082H88.5286V21.094H90.8146V19.6H78.7726V21.094H81.0766ZM86.6746 21.094V24.082H82.9306V21.094H86.6746ZM85.7386 28.366H92.1646V26.872H77.4586V28.366H83.8846V30.022H79.2226V35.188H90.3826V30.022H85.7386V28.366ZM88.5646 31.498V33.712H81.0586V31.498H88.5646ZM111.525 19.132H109.671V22.876H106.665C106.323 21.058 104.613 19.852 102.525 19.852C100.095 19.852 98.2766 21.418 98.2766 23.65C98.2766 25.9 100.095 27.466 102.525 27.466C104.685 27.466 106.323 26.206 106.665 24.388H109.671V27.844H111.525V19.132ZM102.525 25.936C101.085 25.936 100.059 25.018 100.059 23.65C100.059 22.264 101.085 21.382 102.525 21.382C103.965 21.382 104.973 22.264 104.973 23.65C104.973 25.018 103.911 25.936 102.525 25.936ZM109.689 28.618V30.454H102.795V28.618H100.959V35.188H111.525V28.618H109.689ZM109.689 31.894V33.694H102.795V31.894H109.689ZM129.343 31.948H122.881V29.176H127.957V27.682H118.219V25.414H127.597V20.266H116.365V21.76H125.761V23.938H116.401V29.176H121.027V31.948H114.619V33.478H129.343V31.948ZM144.246 28.294V26.8H134.832V22.066H144.12V20.554H132.978V28.294H144.246ZM145.92 31.768H131.178V33.298H145.92V31.768Z" fill="white"/>
<circle cx="36" cy="27" r="14" stroke="white" stroke-width="2"/>
<path d="M27.6665 26.5831H44.3332" stroke="white" stroke-width="2"/>
<path d="M35.9998 35.3333L35.9998 18.6666" stroke="white" stroke-width="2"/>
</svg>
