<svg width="20" height="20" viewBox="0 0 20 20" fill="none" xmlns="http://www.w3.org/2000/svg">
<path d="M11.06 10L15.78 5.28C15.92 5.14 16 4.95 16 4.75C16 4.34 15.66 4 15.25 4C15.05 4 14.86 4.08 14.72 4.22L10 8.94L5.28 4.22C5.14 4.08 4.96 4 4.75 4C4.34 4 4 4.34 4 4.75C4 4.95 4.09 5.14 4.22 5.28L8.94 10L4.22 14.72C4.09 14.86 4 15.04 4 15.25C4 15.66 4.34 16 4.75 16C4.96 16 5.14 15.91 5.28 15.78L10 11.06L14.72 15.78C14.86 15.91 15.05 16 15.25 16C15.66 16 16 15.66 16 15.25C16 15.04 15.92 14.86 15.78 14.72L11.06 10Z" fill="#1D1C1D" fill-opacity="0.7"/>
</svg>
